<svg xmlns="http://www.w3.org/2000/svg" width="88.641" height="105" viewBox="0 0 88.641 105">
  <g id="Group_9" data-name="Group 9" transform="translate(-0.548)">
    <path id="Path" d="M48.841,73a2.286,2.286,0,1,1,0-4.572,12.484,12.484,0,0,0,12.537-12.4V32.643a28.38,28.38,0,0,0-56.756,0V53.707a2.3,2.3,0,0,1-2.311,2.286A2.3,2.3,0,0,1,0,53.707V32.643A32.252,32.252,0,0,1,9.665,9.561a33.256,33.256,0,0,1,46.669,0A32.252,32.252,0,0,1,66,32.643V56.027A17.086,17.086,0,0,1,48.841,73Z" transform="translate(14 30)" fill="#fff"/>
    <path id="Path-2" data-name="Path" d="M23.7,9.561A31.106,31.106,0,0,0,1.253,0C.834,0,.417.011,0,.027A31.118,31.118,0,0,1,21.195,9.561a32.9,32.9,0,0,1,9.3,23.082V56.027a16.833,16.833,0,0,1-14.67,16.867,2.165,2.165,0,0,0,.669.106A16.764,16.764,0,0,0,33,56.027V32.643A32.9,32.9,0,0,0,23.7,9.561Z" transform="translate(45 30)" fill="#ffe0eb"/>
    <path id="Path-3" data-name="Path" d="M9.912,9H4.088A3.855,3.855,0,0,1,0,5.431V3.569A3.855,3.855,0,0,1,4.088,0H9.912A3.855,3.855,0,0,1,14,3.569V5.431A3.855,3.855,0,0,1,9.912,9Z" transform="translate(50 96)" fill="#fff"/>
    <path id="Path-4" data-name="Path" d="M10.455,0a3.159,3.159,0,0,1,.037.475V2.362A3.856,3.856,0,0,1,6.4,5.935H.543A4.713,4.713,0,0,1,0,5.9,3.944,3.944,0,0,0,4.051,9H9.912A3.856,3.856,0,0,0,14,5.428V3.54A3.774,3.774,0,0,0,10.455,0Z" transform="translate(50 96)" fill="#6236ff"/>
    <path id="Path-5" data-name="Path" d="M6.435,23.831,1.117,21.416a1.915,1.915,0,0,1-.9-2.622,34.61,34.61,0,0,1,61.57,0,1.915,1.915,0,0,1-.9,2.622l-5.318,2.415A1.884,1.884,0,0,1,53.123,23,25.031,25.031,0,0,0,8.877,23,1.884,1.884,0,0,1,6.435,23.831Z" transform="translate(16 27)" fill="#fff"/>
    <path id="Path-6" data-name="Path" d="M25.783,18.706A35.126,35.126,0,0,0,0,0,35.286,35.286,0,0,1,18.127,16.6a1.954,1.954,0,0,1-.909,2.666l-1.919.879a25.7,25.7,0,0,1,1.752,2.842,1.892,1.892,0,0,0,2.462.844l5.36-2.456a1.954,1.954,0,0,0,.909-2.666Z" transform="translate(52 27)" fill="#ffe0eb"/>
    <path id="Path-7" data-name="Path" d="M7.512,27H4.488A4.392,4.392,0,0,1,0,22.711V4.289A4.392,4.392,0,0,1,4.488,0H7.512A4.392,4.392,0,0,1,12,4.289V22.71A4.392,4.392,0,0,1,7.512,27Z" transform="translate(10 62)" fill="#332eb0"/>
    <path id="Path-8" data-name="Path" d="M7.512,27H4.488A4.392,4.392,0,0,1,0,22.711V4.289A4.392,4.392,0,0,1,4.488,0H7.512A4.392,4.392,0,0,1,12,4.289V22.71A4.392,4.392,0,0,1,7.512,27Z" transform="translate(70 62)" fill="#332eb0"/>
    <path id="Path-9" data-name="Path" d="M7.577,0c0,.017,0,.034,0,.051V18.5A4.381,4.381,0,0,1,3.1,22.774H0A4.384,4.384,0,0,0,4.476,27H7.523A4.381,4.381,0,0,0,12,22.721V4.277A4.378,4.378,0,0,0,7.577,0Z" transform="translate(10 62)" fill="#6236ff"/>
    <path id="Path-10" data-name="Path" d="M7.576,0c0,.017,0,.034,0,.051V18.5A4.381,4.381,0,0,1,3.1,22.774H0A4.384,4.384,0,0,0,4.476,27H7.523A4.381,4.381,0,0,0,12,22.721V4.277A4.378,4.378,0,0,0,7.576,0Z" transform="translate(70 62)" fill="#6236ff"/>
    <path id="Path-11" data-name="Path" d="M.978,15a.814.814,0,0,1-.361-.086A1.32,1.32,0,0,1,.07,13.342L4.112.764A.928.928,0,0,1,5.383.086,1.32,1.32,0,0,1,5.93,1.658L1.888,14.236A1,1,0,0,1,.978,15Z" transform="translate(47 74)" fill="#fff"/>
    <path id="Path-12" data-name="Path" d="M2.784,15a1.37,1.37,0,0,1-.521-.1A1.181,1.181,0,0,1,1.6,13.3L6.718,2.421H1.3A1.255,1.255,0,0,1,0,1.211,1.255,1.255,0,0,1,1.3,0H8.7A1.322,1.322,0,0,1,9.789.549a1.143,1.143,0,0,1,.1,1.149L3.971,14.276A1.3,1.3,0,0,1,2.784,15Z" transform="translate(56 74)" fill="#fff"/>
    <path id="Shape" d="M7.231,15a1.194,1.194,0,0,1-1.163-1.221c.006-.76.013-1.608.019-2.491H1.173a1.166,1.166,0,0,1-1.01-.6,1.245,1.245,0,0,1-.017-1.2C.832,8.21,4.285,1.77,4.985.885A1.934,1.934,0,0,1,7.093.078a2.1,2.1,0,0,1,1.348,1.9c.036.454.026,3.814.008,6.884h.378a1.212,1.212,0,0,1,0,2.422H8.434c-.008,1.133-.015,2.052-.02,2.512A1.192,1.192,0,0,1,7.241,15Z" transform="translate(35 74)" fill="#fff"/>
    <path id="Path-13" data-name="Path" d="M4.378,15a12.677,12.677,0,0,1-2.955-.112,1.309,1.309,0,0,1-.886-.823c-.226-.673.09-1.052.932-2.065.685-.824,1.962-2.358,4.1-5.162A6.814,6.814,0,0,0,6.787,4.621l.046-.331A2.079,2.079,0,0,0,4.682,2.382,2.117,2.117,0,0,0,2.571,3.973a1.3,1.3,0,0,1-1.523.939,1.2,1.2,0,0,1-1.023-1.4A4.671,4.671,0,0,1,4.682,0,4.569,4.569,0,0,1,9.429,4.357a1.071,1.071,0,0,1-.011.151l-.067.479a1.1,1.1,0,0,1-.023.118A8.889,8.889,0,0,1,7.694,8.2C6.1,10.293,4.979,11.689,4.219,12.615c1.276,0,2.922-.01,4.467-.028a1.2,1.2,0,1,1,.033,2.382C6.8,14.991,5.4,15,4.378,15Z" transform="translate(26 74)" fill="#fff"/>
    <text id="_" data-name="+" transform="translate(47 74)" fill="#fff" font-size="50" font-family="Poppins-SemiBold, Poppins" font-weight="600"><tspan x="-16.85" y="0">+</tspan></text>
    <path id="Path_8" data-name="Path 8" d="M0,20.656-3,0-6,21Z" transform="translate(47)" fill="#6236ff"/>
    <path id="Path_8_Copy" data-name="Path 8 Copy" d="M0,10.82-3,0-6,11Z" transform="matrix(0.914, 0.407, -0.407, 0.914, 66.961, 14.48)" fill="#6236ff"/>
    <path id="Path_8_Copy_3" data-name="Path 8 Copy 3" d="M0,20.656-3,0-6,21Z" transform="matrix(0.719, 0.695, -0.695, 0.719, 89.189, 17.733)" fill="#6236ff"/>
    <path id="Path_8_Copy_4" data-name="Path 8 Copy 4" d="M0,20.656,3,0,6,21Z" transform="matrix(0.719, -0.695, 0.695, 0.719, 0.548, 18.031)" fill="#6236ff"/>
    <path id="Path_8_Copy_2" data-name="Path 8 Copy 2" d="M0,13.77,3,0,6,14Z" transform="matrix(0.914, -0.407, 0.407, 0.914, 19.819, 11.739)" fill="#6236ff"/>
  </g>
</svg>
