<svg xmlns="http://www.w3.org/2000/svg" width="39" height="39" viewBox="0 0 39 39">
  <g id="cells" transform="translate(0 0)">
    <path id="Shape" d="M28.726,37.236a6.016,6.016,0,0,1-.939-7.295l-2.013-2.013A10.459,10.459,0,0,1,21.023,29.9v1.584a1.523,1.523,0,0,1-3.046,0V29.9a10.452,10.452,0,0,1-4.75-1.972L11.6,29.551A4.511,4.511,0,1,1,9.45,27.4l1.622-1.622A10.469,10.469,0,0,1,9.1,21.023H6.018a1.523,1.523,0,0,1,0-3.046H9.1a10.452,10.452,0,0,1,1.972-4.75L9.059,11.213a6.017,6.017,0,1,1,2.155-2.155l2.013,2.013A10.462,10.462,0,0,1,17.977,9.1V7.516a1.523,1.523,0,0,1,3.046,0V9.1a10.469,10.469,0,0,1,4.751,1.972L27.4,9.45A4.52,4.52,0,1,1,29.551,11.6l-1.623,1.623a10.452,10.452,0,0,1,1.972,4.75h3.082a1.523,1.523,0,1,1,0,3.046H29.9a10.459,10.459,0,0,1-1.972,4.751l2.013,2.013a6.019,6.019,0,1,1-1.215,9.448Z" fill="#fff"/>
  </g>
</svg>
