<svg xmlns="http://www.w3.org/2000/svg" width="59" height="59" viewBox="0 0 59 59">
  <g id="donate" transform="translate(59)">
    <path id="Shape" d="M0,42.909A16.041,16.041,0,0,0-13.547,27.1c-.484-3.323-1.988-12.346-4.278-14.636-2.054-2.054-8.245-3.905-15.522-5.94-1.525-.427-2.852-.8-3.8-1.1C-41.11,4.172-46.058.323-46.1.285A1.335,1.335,0,0,0-46.931,0a1.34,1.34,0,0,0-.48.089C-47.526.133-59,4.672-59,17.432a1.34,1.34,0,0,0,.669,1.16c4.255,2.467,5.971,5.293,7.626,8.027a16.7,16.7,0,0,0,4.327,5.306c3.685,2.681,5.688,2.774,7.624,2.864.35.017.707.033,1.081.068a18.69,18.69,0,0,1,6.561,2.434,15.874,15.874,0,0,0-1.069,5.676A16.06,16.06,0,0,0-16.091,59,16.109,16.109,0,0,0,0,42.909Z" fill="#0da7d5"/>
  </g>
</svg>
