<svg xmlns="http://www.w3.org/2000/svg" width="50" height="51" viewBox="0 0 50 51">
  <g id="stick-man" transform="translate(0 0)">
    <path id="Shape" d="M30.738,51a4.506,4.506,0,0,1-4.273-4.543V35.661h-2.93V46.517A4.493,4.493,0,0,1,22.2,49.73,4.317,4.317,0,0,1,19.018,51a4.505,4.505,0,0,1-4.272-4.543V21.378L1.285,7.65a4.552,4.552,0,0,1,0-6.34,4.341,4.341,0,0,1,6.215,0L19.552,13.6a.349.349,0,0,0,.028.023,6.527,6.527,0,0,1-.928-3.366,6.349,6.349,0,1,1,12.7,0,6.535,6.535,0,0,1-.927,3.366c.009-.008.019-.014.028-.023L42.5,1.31a4.341,4.341,0,0,1,6.215,0,4.551,4.551,0,0,1,0,6.34L35.255,21.378v25.14a4.491,4.491,0,0,1-1.33,3.213A4.316,4.316,0,0,1,30.862,51Z" fill="#7b5af1"/>
  </g>
</svg>
