<svg id="Illustration" xmlns="http://www.w3.org/2000/svg" xmlns:xlink="http://www.w3.org/1999/xlink" width="311.668" height="183" viewBox="0 0 311.668 183">
  <defs>
    <clipPath id="clip-path">
      <rect id="Mask" width="302" height="145" fill="#fff"/>
    </clipPath>
    <clipPath id="clip-path-2">
      <path id="Clip_14" data-name="Clip 14" d="M0,0H13.865V13.471H0Z" transform="translate(0.021 0.209)" fill="none"/>
    </clipPath>
    <clipPath id="clip-path-3">
      <path id="Clip_16" data-name="Clip 16" d="M0,0H5.606V5.405H0Z" transform="translate(0.639 0.471)" fill="none"/>
    </clipPath>
    <clipPath id="clip-path-4">
      <path id="Clip_22" data-name="Clip 22" d="M0,0H7.833V5.667H0Z" transform="translate(0 0.126)" fill="none"/>
    </clipPath>
    <clipPath id="clip-path-5">
      <path id="Clip_41" data-name="Clip 41" d="M0,0H18.242V18.434H0Z" transform="translate(0.426 0.775)" fill="none"/>
    </clipPath>
    <clipPath id="clip-path-6">
      <path id="Clip_52" data-name="Clip 52" d="M0,0H4.152V4.3H0Z" transform="translate(0.123 0.387)" fill="none"/>
    </clipPath>
    <clipPath id="clip-path-7">
      <path id="Clip_174" data-name="Clip 174" d="M0,0H23V26H0Z" fill="none"/>
    </clipPath>
    <clipPath id="clip-path-8">
      <path id="Clip_235" data-name="Clip 235" d="M0,0H17V43H0Z" fill="none"/>
    </clipPath>
    <clipPath id="clip-path-9">
      <path id="Clip_22-2" data-name="Clip 22" d="M0,0H5.874V4.722H0Z" transform="translate(0 0.105)" fill="none"/>
    </clipPath>
    <clipPath id="clip-path-10">
      <path id="Clip_41-2" data-name="Clip 41" d="M0,0H14.4V15.669H0Z" transform="translate(0.336 0.659)" fill="none"/>
    </clipPath>
  </defs>
  <g id="Group_22" data-name="Group 22" transform="translate(0 38)">
    <rect id="Mask-2" data-name="Mask" width="302" height="145" fill="#fff"/>
    <g id="Group_22-2" data-name="Group 22" clip-path="url(#clip-path)">
      <g id="Group_22-3" data-name="Group 22" transform="translate(3 -38)" opacity="0.294">
        <path id="Fill_1" data-name="Fill 1" d="M40.975,57.91A29.99,29.99,0,1,1,57.91,19.026,29.987,29.987,0,0,1,40.975,57.91" transform="translate(9 4)" fill="#d6d1f2"/>
        <path id="Fill_3" data-name="Fill 3" d="M13.476,4.387C16.743,12.976,3.792,18.19.524,9.612s9.684-13.8,12.952-5.225" transform="translate(0 105)" fill="#edf8f9"/>
        <path id="Fill_5" data-name="Fill 5" d="M13.474,4.388c3.274,8.591-9.687,13.8-12.949,5.226-3.274-8.59,9.68-13.8,12.949-5.226" transform="translate(8 72)" fill="#d6d1f2"/>
        <path id="Fill_7" data-name="Fill 7" d="M29,14.486A14.5,14.5,0,1,1,14.486,0,14.495,14.495,0,0,1,29,14.486" transform="translate(164 17)" fill="#d6d1f2"/>
        <path id="Fill_9" data-name="Fill 9" d="M91.418,70.549a38.408,38.408,0,0,1-4.347,8.17c0,.006,0,.011.011.017.66,1.019,1.348,2.022,2.047,3.013a9.865,9.865,0,0,1,12.727,2.1,10.024,10.024,0,0,1-1.216,14.063,9.861,9.861,0,0,1-13.965-1.224,10.07,10.07,0,0,1-.682-11.914c-.9-.493-1.805-.953-2.729-1.4h-.006a38.064,38.064,0,0,1-12.8,8.758c0,.006.006.006.006.011a7.982,7.982,0,0,1,.512,1.092A9.977,9.977,0,0,1,65.4,106.148,9.921,9.921,0,0,1,52.093,94.92a38.259,38.259,0,0,1-14.168-4.27q-3.442,3.332-6.7,6.863a8.434,8.434,0,0,1,1.618,2.631,8.628,8.628,0,1,1-11.176-4.9,8.526,8.526,0,0,1,7.632.67q2.417-3.8,4.473-7.81a38.048,38.048,0,0,1-7.835-7.372l-.011.006c-.98.4-1.948.8-2.928,1.2a3.366,3.366,0,1,1-.858-1.977c.71-.487,1.4-1,2.1-1.518a38.916,38.916,0,0,1-6.2-15.249c-1.629-.055-3.257-.061-4.881-.044A6.605,6.605,0,0,1,.46,64.672,6.676,6.676,0,0,1,4.2,56.037,6.591,6.591,0,0,1,12.769,59.8c.088.215.16.443.226.654,1.535-.3,3.054-.6,4.589-.9a38.717,38.717,0,0,1,15.34-33.942,10.564,10.564,0,0,1-8.787-6.691A10.673,10.673,0,0,1,30.1,5.107,10.63,10.63,0,0,1,43.257,20.134a37.763,37.763,0,0,1,20.341-1.3c.54-.964,1.1-1.922,1.657-2.869l.1-.144a8.638,8.638,0,0,1-2.933-3.838A8.8,8.8,0,0,1,67.351.609a8.692,8.692,0,0,1,11.29,4.963,8.785,8.785,0,0,1-4.913,11.372,8.231,8.231,0,0,1-2.669.582l.006.133c-.231,1.1-.457,2.188-.71,3.279a38.276,38.276,0,0,1,14.267,10.3,7.061,7.061,0,0,1,3.109-2.387A7.275,7.275,0,0,1,93.025,42.4a6.59,6.59,0,0,1-1.513.4,38.549,38.549,0,0,1,2.482,15.647s0-.006.011-.006a6.177,6.177,0,0,1,.9-.431,8.1,8.1,0,0,1,10.531,4.608,8.19,8.19,0,0,1-4.589,10.608,8.049,8.049,0,0,1-9.42-2.67c-.006-.006-.006-.006-.006-.011" transform="translate(56 58)" fill="#d6d1f2"/>
        <path id="Fill_11" data-name="Fill 11" d="M6.665.727A10.5,10.5,0,0,1,20.559,13.5a10.514,10.514,0,0,1-6.2,6.764A10.5,10.5,0,1,1,6.665.727" transform="translate(59 81)" fill="#d6d1f2"/>
        <g id="Group_15" data-name="Group 15" transform="translate(108)">
          <path id="Clip_14-2" data-name="Clip 14" d="M0,0H13.865V13.471H0Z" transform="translate(0.021 0.209)" fill="none"/>
          <g id="Group_15-2" data-name="Group 15" clip-path="url(#clip-path-2)">
            <path id="Fill_13" data-name="Fill 13" d="M.521,9.251C-2.722.985,10.108-4.032,13.344,4.223S3.752,17.5.521,9.251" transform="translate(0.021 0.209)" fill="#edf8f9"/>
          </g>
        </g>
        <path id="Fill_16" data-name="Fill 16" d="M.526,9.611c-3.274-8.589,9.681-13.8,12.948-5.225,3.274,8.595-9.68,13.8-12.948,5.225" transform="translate(86 33)" fill="#d6d1f2"/>
        <path id="Fill_18" data-name="Fill 18" d="M13.474,4.39c3.274,8.59-9.681,13.8-12.948,5.22s9.68-13.8,12.948-5.22" transform="translate(120 25)" fill="#d6d1f2"/>
        <path id="Fill_20" data-name="Fill 20" d="M76,46.1a6.691,6.691,0,1,1-13.383.016,1.6,1.6,0,0,1,.016-.279c-1.259-.115-2.513-.2-3.774-.268A23.512,23.512,0,0,1,43.946,58.821c-.028,1.671-.082,3.326-.17,5a3.581,3.581,0,1,1-1.631.378c-.365-1.567-.741-3.15-1.134-4.717a23.556,23.556,0,0,1-3.654.3,23.305,23.305,0,0,1-12.969-3.923c-.621.449-1.243.888-1.876,1.32a2.726,2.726,0,0,1,.437,1.485,2.825,2.825,0,1,1-2.836-2.844,2.718,2.718,0,0,1,1.1.23c.436-.536.823-1.09,1.2-1.654a23.531,23.531,0,0,1-8.267-14.776c-1.216-.143-2.443-.268-3.686-.384A5.507,5.507,0,0,1,3.781,42.05a5.577,5.577,0,0,1-3.5-7.023,5.519,5.519,0,0,1,10.634.553c1.015-.29,2.007-.564,3.021-.827a23.394,23.394,0,0,1,3.054-10.223c-1.057-1.441-2.16-2.876-3.3-4.284a1.974,1.974,0,0,1-.779.148A2.416,2.416,0,1,1,15.3,17.982a2.3,2.3,0,0,1-.316,1.161c1.243.915,2.5,1.813,3.746,2.739a23.369,23.369,0,0,1,18.575-9.21,23.073,23.073,0,0,1,5.333.619c.491-1.09.954-2.181,1.412-3.282a5.644,5.644,0,1,1,3.66,1.348,7.048,7.048,0,0,1-.911-.071c-.185,1.057-.344,2.12-.5,3.178A23.441,23.441,0,0,1,58.8,26.737c.747-.263,1.5-.542,2.253-.833a4.759,4.759,0,0,1-.279-1.583,4.627,4.627,0,1,1,1.549,3.457c-.867.477-1.717.975-2.584,1.452A23.555,23.555,0,0,1,60.786,36.2a23.93,23.93,0,0,1-.731,5.895c1.112.291,2.241.581,3.353.855A6.681,6.681,0,0,1,76,46.1" transform="translate(209 12)" fill="#d6d1f2"/>
      </g>
    </g>
  </g>
  <g id="Group_40" data-name="Group 40" transform="translate(219 18)" opacity="0.677">
    <path id="Fill_1-2" data-name="Fill 1" d="M17,8.491A8.5,8.5,0,1,1,8.491,0,8.5,8.5,0,0,1,17,8.491" transform="translate(31 28)" fill="#a158ed"/>
    <path id="Fill_3-2" data-name="Fill 3" d="M2,0A2,2,0,1,1,0,2,2,2,0,0,1,2,0" transform="translate(39 37)" fill="#8d3fd0"/>
    <path id="Fill_5-2" data-name="Fill 5" d="M3,0A3,3,0,1,1,0,3,3,3,0,0,1,3,0" transform="translate(33 31)" fill="#8d3fd0"/>
    <path id="Fill_7-2" data-name="Fill 7" d="M1.5,0A1.5,1.5,0,1,1,0,1.5,1.5,1.5,0,0,1,1.5,0" transform="translate(35 38)" fill="#8d3fd0"/>
    <path id="Fill_9-2" data-name="Fill 9" d="M26,15.8a2.984,2.984,0,0,0-.382,1.386c-.617-.054-1.235-.1-1.852-.13a11.46,11.46,0,0,1-7.323,6.361c-.013.8-.041,1.595-.082,2.4h-.022a1.742,1.742,0,0,0-.781.182c-.178-.752-.363-1.512-.556-2.264A11.674,11.674,0,0,1,6.841,22c-.3.217-.61.426-.922.635a1.278,1.278,0,0,0-.64-.543c.213-.258.4-.522.588-.794a11.221,11.221,0,0,1-4.059-7.088Q.915,14.1,0,14.019a1.8,1.8,0,0,0,.148-.335A2.61,2.61,0,0,0,.225,12.27c.5-.14.986-.273,1.483-.4a11.034,11.034,0,0,1,1.5-4.906c-.519-.689-1.059-1.378-1.62-2.054a1.113,1.113,0,0,0,.638-.53c.611.438,1.228.87,1.838,1.315A11.635,11.635,0,0,1,15.8,1.575C16.043,1.053,16.27.53,16.5,0a2.8,2.8,0,0,0,1.349.612c-.092.509-.169,1.017-.247,1.525a11.383,11.383,0,0,1,6.137,5.888q.554-.188,1.107-.4a2.219,2.219,0,0,0,.625.9c-.426.231-.844.468-1.27.7a11.083,11.083,0,0,1,.514,3.344,11.254,11.254,0,0,1-.359,2.828c.547.139,1.1.277,1.647.41" transform="translate(5 6)" fill="#a158ed"/>
    <path id="Fill_11-2" data-name="Fill 11" d="M.007,3.36a3.281,3.281,0,0,1,.407-1.5A3.494,3.494,0,1,1,0,3.5.935.935,0,0,1,.007,3.36" transform="translate(30 20)" fill="#8d3fd0"/>
    <path id="Fill_13-2" data-name="Fill 13" d="M.12,2.685A2.05,2.05,0,0,1,0,2a1.979,1.979,0,1,1,.12.683" transform="translate(30 11)" fill="#8d3fd0"/>
    <g id="Group_17" data-name="Group 17" transform="translate(20)">
      <path id="Clip_16-2" data-name="Clip 16" d="M0,0H5.606V5.405H0Z" transform="translate(0.639 0.471)" fill="none"/>
      <g id="Group_17-2" data-name="Group 17" clip-path="url(#clip-path-3)">
        <path id="Fill_15" data-name="Fill 15" d="M2.354,5.372A2.856,2.856,0,0,1,.992,4.764,2.655,2.655,0,0,1,0,2.705,2.754,2.754,0,0,1,2.8,0,2.754,2.754,0,0,1,5.606,2.7a2.753,2.753,0,0,1-2.8,2.705,3.308,3.308,0,0,1-.452-.034" transform="translate(0.639 0.471)" fill="#8d3fd0"/>
      </g>
    </g>
    <path id="Fill_18-2" data-name="Fill 18" d="M1.994,0A2,2,0,1,1,0,2,2,2,0,0,1,1.994,0" transform="translate(20 20)" fill="#8d3fd0"/>
    <path id="Fill_20-2" data-name="Fill 20" d="M1.517,0A1.5,1.5,0,1,1,0,1.5,1.483,1.483,0,0,1,.831.158,1.471,1.471,0,0,1,1.5,0Z" transform="translate(20 32)" fill="#8d3fd0"/>
    <path id="Fill_22" data-name="Fill 22" d="M4.5,0A4.5,4.5,0,1,1,0,4.5,4.492,4.492,0,0,1,4.5,0" transform="translate(9 12)" fill="#8d3fd0"/>
    <path id="Fill_24" data-name="Fill 24" d="M1.495,0A1.5,1.5,0,1,1,0,1.5,1.5,1.5,0,0,1,1.495,0" transform="translate(14 24)" fill="#8d3fd0"/>
    <path id="Fill_26" data-name="Fill 26" d="M2.078.122a1.388,1.388,0,0,1,.691.6A1.422,1.422,0,0,1,3,1.5,1.5,1.5,0,1,1,1.495,0a1.458,1.458,0,0,1,.584.122" transform="translate(8 28)" fill="#8d3fd0"/>
    <path id="Fill_28" data-name="Fill 28" d="M1.868,1.483a.95.95,0,0,1-.54.457A.845.845,0,0,1,1,2,1,1,0,1,1,2,1a.945.945,0,0,1-.132.48" transform="translate(5 8)" fill="#8d3fd0"/>
    <path id="Fill_30" data-name="Fill 30" d="M4.942,1.96a2.5,2.5,0,0,1-.071,1.328,1.732,1.732,0,0,1-.136.315A2.483,2.483,0,1,1,4.942,1.96" transform="translate(0 16)" fill="#8d3fd0"/>
    <path id="Fill_32" data-name="Fill 32" d="M8,4A4,4,0,1,1,4,0,4,4,0,0,1,8,4" transform="translate(9 36)" fill="#a158ed"/>
    <path id="Fill_34" data-name="Fill 34" d="M1,0A1,1,0,1,1,0,1,1,1,0,0,1,1,0" transform="translate(13 40)" fill="#8d3fd0"/>
    <path id="Fill_36" data-name="Fill 36" d="M1.5,0A1.5,1.5,0,1,1,0,1.5,1.5,1.5,0,0,1,1.5,0" transform="translate(10 37)" fill="#8d3fd0"/>
    <path id="Fill_38" data-name="Fill 38" d="M.5,0A.5.5,0,1,1,0,.5.5.5,0,0,1,.5,0" transform="translate(11 41)" fill="#8d3fd0"/>
  </g>
  <g id="Group_60" data-name="Group 60" transform="translate(254 87)">
    <path id="Fill_1-3" data-name="Fill 1" d="M24,11.488A11.757,11.757,0,0,1,12.012,23,11.759,11.759,0,0,1,0,11.511,11.756,11.756,0,0,1,11.987,0,11.759,11.759,0,0,1,24,11.488" transform="translate(5 21)" fill="#8d3fd0"/>
    <path id="Fill_3-3" data-name="Fill 3" d="M2,0A2,2,0,1,1,0,2,2,2,0,0,1,2,0" transform="translate(20 23)" fill="#a158ed"/>
    <path id="Fill_5-3" data-name="Fill 5" d="M8,3A3.113,3.113,0,0,1,4.792,6,3.279,3.279,0,0,1,2.32,4.915,2.775,2.775,0,0,1,1.731,3.9c-.409.2-.822.4-1.239.59L.485,4.468A2.182,2.182,0,0,1,.274,2.04c.446.139.9.28,1.343.423l.017,0a2.737,2.737,0,0,1,.3-.827A3.234,3.234,0,0,1,4.784,0,3.111,3.111,0,0,1,8,3" transform="translate(26 28)" fill="#a158ed"/>
    <path id="Fill_7-3" data-name="Fill 7" d="M0,1.881A1.945,1.945,0,0,1,2,0,1.942,1.942,0,0,1,4,1.877,1.94,1.94,0,0,1,2,3.758c-.07,0-.14,0-.207-.007-.087.438-.17.872-.257,1.309-.058.309-.12.617-.177.926h0L1.19,6a1.431,1.431,0,0,1-.737-.136.812.812,0,0,1-.337-.312c.121-.246.24-.492.353-.743.194-.426.377-.856.551-1.29A1.862,1.862,0,0,1,0,1.881" transform="translate(19 16)" fill="#a158ed"/>
    <path id="Fill_9-3" data-name="Fill 9" d="M.289,4.28A2.955,2.955,0,0,1,0,3,3,3,0,1,1,1.153,5.362,2.965,2.965,0,0,1,.289,4.28" transform="translate(26 20)" fill="#a158ed"/>
    <path id="Fill_11-3" data-name="Fill 11" d="M3.7.953A1.952,1.952,0,0,1,4,2,2,2,0,1,1,0,2a1.745,1.745,0,0,1,.05-.43A2,2,0,0,1,3.7.953" transform="translate(17 43)" fill="#a158ed"/>
    <path id="Fill_13-3" data-name="Fill 13" d="M0,.389,0,.38A7.385,7.385,0,0,1,.9,0,10.438,10.438,0,0,1,2,1.232,6.973,6.973,0,0,0,1.389,2,1.7,1.7,0,0,1,0,.389" transform="translate(25 24)" fill="#a158ed"/>
    <path id="Fill_15-2" data-name="Fill 15" d="M9,5.367A2.7,2.7,0,0,1,6.228,8,2.706,2.706,0,0,1,3.448,5.372a2.4,2.4,0,0,1,.14-.815l-.039-.012c-.3-.186-.6-.374-.89-.564Q1.305,3.11,0,2.179A5.686,5.686,0,0,1,.962.7,2.935,2.935,0,0,1,1.994,0l.013.029c.706.743,1.394,1.5,2.056,2.28.223.257.442.523.657.784l.031.045a2.838,2.838,0,0,1,1.471-.4A2.709,2.709,0,0,1,9,5.367" transform="translate(23 36)" fill="#a158ed"/>
    <path id="Fill_17" data-name="Fill 17" d="M2,4A2,2,0,1,1,4,2,2,2,0,0,1,2,4" transform="translate(21 29)" fill="#a158ed"/>
    <path id="Fill_19" data-name="Fill 19" d="M0,3A3,3,0,0,1,2.992,0,2.95,2.95,0,0,1,4.609.478a2.983,2.983,0,0,1,1.37,2.41l.079,0h.927A3.728,3.728,0,0,1,6.2,5.508l-.059.05a9.114,9.114,0,0,1-.678-.871A2.97,2.97,0,0,1,3.358,5.974,2.419,2.419,0,0,1,3,6,3,3,0,0,1,0,3" transform="translate(2 27)" fill="#a158ed"/>
    <g id="Group_23" data-name="Group 23" transform="translate(0 37)">
      <path id="Clip_22-3" data-name="Clip 22" d="M0,0H7.833V5.667H0Z" transform="translate(0 0.126)" fill="none"/>
      <g id="Group_23-2" data-name="Group 23" clip-path="url(#clip-path-4)">
        <path id="Fill_21" data-name="Fill 21" d="M7.075,2.115c-.36.071-.721.15-1.078.233A2.817,2.817,0,0,1,3.989,5.517a3.071,3.071,0,0,1-3.83-1.78A2.8,2.8,0,0,1,2.059.147,3.146,3.146,0,0,1,5.493,1.2c.238-.189.469-.382.7-.582C6.381.461,6.565.3,6.746.13A2.347,2.347,0,0,1,7.833,1.965c-.255.047-.507.1-.758.15" transform="translate(0 0.126)" fill="#a158ed"/>
      </g>
    </g>
    <path id="Fill_24-2" data-name="Fill 24" d="M0,2.487A2.656,2.656,0,0,1,2.793,0a2.657,2.657,0,0,1,2.8,2.482,2.386,2.386,0,0,1-1.1,1.977A26.868,26.868,0,0,0,6.3,6.474c.228.23.46.46.7.681a1.585,1.585,0,0,1-.646.631A1.821,1.821,0,0,1,5.359,8c-.1-.225-.2-.451-.313-.673-.393-.847-.818-1.687-1.266-2.515a3.042,3.042,0,0,1-.981.16A2.654,2.654,0,0,1,0,2.487" transform="translate(4 16)" fill="#a158ed"/>
    <path id="Fill_26-2" data-name="Fill 26" d="M0,1.5A1.5,1.5,0,1,1,1.5,3,1.5,1.5,0,0,1,0,1.5" transform="translate(10 34)" fill="#a158ed"/>
    <path id="Fill_28-2" data-name="Fill 28" d="M0,.99A.994.994,0,0,1,1,0,1,1,0,0,1,2,.988a1,1,0,0,1-.642.925c.057.245.123.49.188.735.119.446.245.887.379,1.33a1.191,1.191,0,0,1-.491-.008,1.172,1.172,0,0,1-.683-.446L.738,2.861c0-.309-.009-.614-.013-.924A.986.986,0,0,1,0,.99" transform="translate(13 18)" fill="#a158ed"/>
    <path id="Fill_30-2" data-name="Fill 30" d="M2,4A2,2,0,1,1,4,2,2,2,0,0,1,2,4" transform="translate(13 25)" fill="#a158ed"/>
    <path id="Fill_32-2" data-name="Fill 32" d="M1.5,3A1.5,1.5,0,1,1,3,1.5,1.5,1.5,0,0,1,1.5,3" transform="translate(15 37)" fill="#a158ed"/>
    <path id="Fill_34-2" data-name="Fill 34" d="M0,3A3,3,0,1,1,3,6,3,3,0,0,1,0,3" transform="translate(14 30)" fill="#a158ed"/>
    <path id="Fill_36-2" data-name="Fill 36" d="M3,1.5A1.5,1.5,0,1,1,1.5,0,1.5,1.5,0,0,1,3,1.5" transform="translate(10 30)" fill="#a158ed"/>
    <path id="Fill_38-2" data-name="Fill 38" d="M6,1l-.077.05A10.6,10.6,0,0,1,4.695,2.153l-.05.039a2.132,2.132,0,0,1,.619,1.215,1.508,1.508,0,0,1,.022.281A2.489,2.489,0,0,1,2.648,6,2.492,2.492,0,0,1,0,3.693,2.369,2.369,0,0,1,1.922,1.475a2.845,2.845,0,0,1,.72-.091,2.922,2.922,0,0,1,.914.144l.013-.039q.3-.686.6-1.372L4.2,0A2.874,2.874,0,0,1,6,1" transform="translate(7 40)" fill="#a158ed"/>
    <g id="Group_42" data-name="Group 42" transform="translate(39 11)">
      <path id="Clip_41-3" data-name="Clip 41" d="M0,0H18.242V18.434H0Z" transform="translate(0.426 0.775)" fill="none"/>
      <g id="Group_42-2" data-name="Group 42" clip-path="url(#clip-path-5)">
        <path id="Fill_40" data-name="Fill 40" d="M18.242,9.208A9.168,9.168,0,0,1,9.13,18.434,9.167,9.167,0,0,1,0,9.226,9.167,9.167,0,0,1,9.112,0a9.167,9.167,0,0,1,9.13,9.208" transform="translate(0.426 0.775)" fill="#a158ed"/>
      </g>
    </g>
    <path id="Fill_43" data-name="Fill 43" d="M2,0A2,2,0,1,1,0,2,2,2,0,0,1,2,0" transform="translate(48 21)" fill="#8d3fd0"/>
    <path id="Fill_45" data-name="Fill 45" d="M3.5,0A3.5,3.5,0,1,1,0,3.5,3.5,3.5,0,0,1,3.5,0" transform="translate(42 14)" fill="#8d3fd0"/>
    <path id="Fill_47" data-name="Fill 47" d="M1.5,0A1.5,1.5,0,1,1,0,1.5,1.5,1.5,0,0,1,1.5,0" transform="translate(44 23)" fill="#8d3fd0"/>
    <path id="Fill_49" data-name="Fill 49" d="M2,0A2,2,0,0,0,2,4,2,2,0,1,0,2,0" transform="translate(37 8)" fill="#a158ed"/>
    <g id="Group_53" data-name="Group 53" transform="translate(27)">
      <path id="Clip_52-3" data-name="Clip 52" d="M0,0H4.152V4.3H0Z" transform="translate(0.123 0.387)" fill="none"/>
      <g id="Group_53-2" data-name="Group 53" clip-path="url(#clip-path-6)">
        <path id="Fill_51" data-name="Fill 51" d="M2.076,0c-2.765,0-2.77,4.3,0,4.3S4.846,0,2.076,0" transform="translate(0.123 0.386)" fill="#a158ed"/>
      </g>
    </g>
    <path id="Fill_54" data-name="Fill 54" d="M2,0A2,2,0,1,0,2,4,2,2,0,0,0,2,0" transform="translate(39 33)" fill="#a158ed"/>
    <path id="Fill_56" data-name="Fill 56" d="M2,0A2,2,0,0,0,2,4,2,2,0,1,0,2,0" transform="translate(37 44)" fill="#a158ed"/>
    <path id="Fill_58" data-name="Fill 58" d="M2,0A2,2,0,0,0,2,4,2,2,0,0,0,2,0" transform="translate(45 43)" fill="#a158ed"/>
  </g>
  <g id="Group_6" data-name="Group 6" transform="translate(55)">
    <path id="Fill_1-4" data-name="Fill 1" d="M23.893,41.619a4.854,4.854,0,0,1,3.646-3.211c1.566-.2,3.169.093,4.727-.167a7.014,7.014,0,0,0,5.224-4.209,7.229,7.229,0,0,0-.75-6.74c-1.092-1.557-2.857-2.756-3.208-4.636a5.853,5.853,0,0,1,1.447-4.379,16.6,16.6,0,0,0,2.62-3.919,5.823,5.823,0,0,0-1.771-6.39,6.026,6.026,0,0,0-4.459-1.192,1.592,1.592,0,0,1-1.756-1.243l-.005-.022a5.116,5.116,0,0,0-1.07-1.924A9.745,9.745,0,0,0,23.974.311a6.326,6.326,0,0,0-5.433.7c-1.691,1.177-2.579,3.213-3.214,5.2A20.392,20.392,0,0,1,13,11.964c-2.688.821-5.45,1.461-7.474,3.441S2.546,20.816,4.166,23.15c.756,1.089,2,1.879,2.34,3.167A3.711,3.711,0,0,1,5.675,29.4a27.287,27.287,0,0,1-2.3,2.338A12.009,12.009,0,0,0,0,40.265a3.541,3.541,0,0,0,1.309,2.727c2.558,1.991,6.028-1.673,8.769-.347,1.244.6,1.852,2.035,2.857,3a6.039,6.039,0,0,0,6.546.741,8.046,8.046,0,0,0,4.409-4.762" transform="translate(90 10)" fill="#190f52"/>
    <path id="Fill_3-4" data-name="Fill 3" d="M5.743,0A101.088,101.088,0,0,1,8,20.48a26.54,26.54,0,0,0-3.393,7.507C4.136,29.776,1.849,30.613.516,32c.816-1.538,1.528-3.162,2.344-4.7.781-1.473.6-3.3.951-4.9C2.789,24,1.672,25.8.65,27.405.438,27.244.212,27,0,26.835a16.139,16.139,0,0,0,1.3-4.622,5.573,5.573,0,0,1,1.693-3.457A56.991,56.991,0,0,0,.142,4.128Z" transform="translate(126 74)" fill="#ffab91"/>
    <path id="Fill_5-4" data-name="Fill 5" d="M0,0C1.786.646,7.048,3.432,8.9,3.873s3.763,1.716,3.839,3.541c.055,1.3-.854,2.55-.648,3.841.317,1.987,3.051,2.994,3.345,4.985.324,2.2-2.541,4.214-1.661,6.266.713,1.663,3.4,1.882,4.081,3.556a2.6,2.6,0,0,1-.535,2.534,8.242,8.242,0,0,1-2.168,1.711c.089.975.112,2.131.2,3.106A33.843,33.843,0,0,0,9.268,36C5.114,25.364.23,11.353,0,0" transform="translate(118 42)" fill="#e5e4e3"/>
    <path id="Fill_7-4" data-name="Fill 7" d="M31.908,16.717a32.933,32.933,0,0,0-4-14.284A98.731,98.731,0,0,1,10.31.006c-.69-.158-2.909,2.618-3.4,3.176A26.16,26.16,0,0,0,3.83,7.55,27.6,27.6,0,0,0,.47,17.676c-.864,7.036-.4,14.184.285,21.159.669,6.822,2.33,14.1,2.355,21.018,2.006.252,2.554.569,4.56.821A177.872,177.872,0,0,0,15,26.168c.449.067,1.261.157,1.709.224a292.766,292.766,0,0,1,3.1,35.245,11.242,11.242,0,0,0,4.438.247c.462-.07,1.683-5.617,1.872-6.314a183.676,183.676,0,0,0,4.656-22.044,83.369,83.369,0,0,0,1.135-16.808" transform="translate(98 71)" fill="#ff4a86"/>
    <path id="Fill_9-4" data-name="Fill 9" d="M4.212.6A1.516,1.516,0,0,0,5,.3c-.073,2.144-.129,4.288-.153,6.433A5.745,5.745,0,0,1,1.7,6.821C1.167,4.625.569,2.336,0,0A9.2,9.2,0,0,0,4.212.6" transform="translate(116 155)" fill="#ffab91"/>
    <path id="Fill_11-4" data-name="Fill 11" d="M.217,14.382A26.755,26.755,0,0,1,6.861,0L8.446,1.731a6.236,6.236,0,0,1,1.483,5.1A227.653,227.653,0,0,0,7.609,31.686a1.73,1.73,0,0,1-.828.276A10.867,10.867,0,0,1,2.355,31.4C.8,25.776-.539,19.854.217,14.382" transform="translate(115 123)" fill="#ff4a86"/>
    <path id="Fill_13-4" data-name="Fill 13" d="M4.412,0a1.653,1.653,0,0,1,.97.335c.28.222.513.508.774.755.629.593,5.872,4.239,5.844,5.06a1.726,1.726,0,0,1-1.318,1.505A7.052,7.052,0,0,1,5.845,7.47C4.345,6.865,3.08,5.792,1.5,5.382.891,5.225,0,5.249,0,4.391A12.392,12.392,0,0,1,.959.3a.182.182,0,0,1,.33-.02c.143.269.381.78.765.694.318-.071.519-.331.774-.508A2.7,2.7,0,0,1,4.412,0" transform="translate(118 161)" fill="#fff6d2"/>
    <path id="Fill_15-3" data-name="Fill 15" d="M5.078,2.31A1.874,1.874,0,0,0,6,2.38C5.058,4.243,4.132,6.114,3.24,8A7.162,7.162,0,0,1,0,6.743C.353,4.579.671,2.3,1.039,0A11.227,11.227,0,0,0,5.078,2.31" transform="translate(88 153)" fill="#ffab91"/>
    <path id="Fill_17-2" data-name="Fill 17" d="M5.05,10.853A27.894,27.894,0,0,1,16.992,0l.728,2.246a6.5,6.5,0,0,1-.748,5.362A240.683,240.683,0,0,0,4.655,29.976a1.686,1.686,0,0,1-.865-.068A10.43,10.43,0,0,1,0,27.642c.9-5.885,2.116-11.96,5.05-16.788" transform="translate(89 124)" fill="#ff4a86"/>
    <path id="Fill_19-2" data-name="Fill 19" d="M6.8,1.294a1.873,1.873,0,0,1,.87.78c.193.354.307.752.469,1.124.39.893,4.242,7,3.831,7.83a2.022,2.022,0,0,1-2.093.964A8.192,8.192,0,0,1,4.846,9.636C3.54,8.342,2.7,6.67,1.218,5.541.649,5.108-.3,4.735.094,3.849A14.065,14.065,0,0,1,3.007.061a.21.21,0,0,1,.358.128c.026.34.041.973.487,1.057a2.781,2.781,0,0,0,1.054-.178A3.19,3.19,0,0,1,6.8,1.294" transform="translate(85 157)" fill="#fff6d2"/>
    <path id="Fill_21-2" data-name="Fill 21" d="M4.013,28.582c1.249-2.638.8-5.807-.173-8.564S1.389,14.7.567,11.891s-.9-6.079.773-8.457C3.207.775,6.715-.053,9.9,0A23.167,23.167,0,0,1,27.714,9.191c2.159,2.869,3.706,6.588,2.665,10.056-.554,1.847-1.655,3.684-1.239,5.568.473,2.147,2.83,3.712,2.618,5.9-.151,1.554-1.615,2.9-1.27,4.416.209.923,1.041,1.566,1.367,2.454a3.169,3.169,0,0,1-.778,3.1,7.407,7.407,0,0,1-2.787,1.725C21.083,45.344,8.26,44.217,2.4,39a3.005,3.005,0,0,1-1.3-2.551A10.11,10.11,0,0,1,1.79,34.87c.539-1.482,3.487-2.187,2.752-3.577s-1.805-1.83-.529-2.711" transform="translate(98 42)" fill="#f9f9f9"/>
    <path id="Fill_23" data-name="Fill 23" d="M25,15a31.37,31.37,0,0,0-6.921-9.986,18.266,18.266,0,0,0-11.223-5C4.865-.084,2.7.292,1.336,1.676a5.6,5.6,0,0,0-1,5.63A17.008,17.008,0,0,0,3.5,12.441" transform="translate(101 36)" fill="#f9f9f9"/>
    <path id="Fill_25" data-name="Fill 25" d="M17.713,11.642a28.553,28.553,0,0,0-5.378-7.517A14.474,14.474,0,0,0,4.122.047,4.166,4.166,0,0,0,.94.726C-.217,1.717-.192,3.54.4,4.935S2.024,7.5,2.673,8.873c-.331-1.157-.606-2.561.237-3.428.823-.847,2.226-.662,3.366-.329A23.471,23.471,0,0,1,18,13" transform="translate(106 38)" fill="#cccbca"/>
    <path id="Fill_27" data-name="Fill 27" d="M.1,2.682a2.728,2.728,0,0,0,1.26-1A1.584,1.584,0,0,0,1.077.043C1.062.021,1.09-.011,1.121,0a1.592,1.592,0,0,1-.9,3C.01,3-.085,2.776.1,2.682" transform="translate(119 48)" fill="#cccbca"/>
    <path id="Fill_29" data-name="Fill 29" d="M.352.061A51.931,51.931,0,0,0,6.987,5.944c.034.023-.005.068-.041.052A14.1,14.1,0,0,1,.022.31c-.1-.18.146-.427.329-.249" transform="translate(108 43)" fill="#cccbca"/>
    <path id="Fill_31" data-name="Fill 31" d="M.457.122c2.714,4.784,3.077,11.456,1.93,16.863-.005.024-.035.016-.032-.008A35.285,35.285,0,0,0,2.279,8.43,39.967,39.967,0,0,0,.017.364c-.1-.305.29-.505.439-.241" transform="translate(123 51)" fill="#fafafa"/>
    <path id="Fill_33" data-name="Fill 33" d="M.482.15a17.142,17.142,0,0,0,2.589,5.2c1.194,1.562,2.6,2.96,3.9,4.437,2.282,2.591,4.4,5.641,3.979,9.189,0,.033-.061.033-.062,0-.149-4.214-3.012-7.387-5.8-10.362C2.942,6.33.229,3.505,0,.268-.018.01.39-.121.482.15" transform="translate(107 48)" fill="#fafafa"/>
    <path id="Fill_35" data-name="Fill 35" d="M.457.511A31.052,31.052,0,0,0,6.477.9C8.32.767,10.1.234,11.934,0c.061-.008.092.1.037.137C8.694,2.229,3.856,2.432.287,1.377A.449.449,0,0,1,.457.511" transform="translate(115 68)" fill="#cccbca"/>
    <path id="Fill_37" data-name="Fill 37" d="M.066.012A8.946,8.946,0,0,1,1.9,6.707c-.073.355-.5.412-.585.032-.246-1.108-.2-2.291-.439-3.417C.637,2.214.214,1.177,0,.065-.008.015.034-.019.066.012" transform="translate(127 68)" fill="#cccbca"/>
    <path id="Fill_39" data-name="Fill 39" d="M.241,3.092C4.856,3.263,9.157,2.88,12.776.031c.119-.094.3.049.186.151C9.78,2.933,4.633,4.929.194,3.554c-.256-.079-.277-.474.048-.462" transform="translate(114 78)" fill="#cccbca"/>
    <path id="Fill_41" data-name="Fill 41" d="M.019.15C.038-.07.271-.024.327.134c.4,1.139.514,2.386.957,3.526A15.555,15.555,0,0,0,2.97,6.76c.089.133-.036.319-.148.2C1.386,5.491-.193,2.6.019.15" transform="translate(104 75)" fill="#cccbca"/>
    <path id="Fill_43-2" data-name="Fill 43" d="M15.713,0A23.563,23.563,0,0,0,9.341,2.329,8.342,8.342,0,0,0,5.277,7.672c-.409,2.149.271,4.535-.722,6.47a9.449,9.449,0,0,0-.968,1.828c-.159.607-.054,1.257-.169,1.875-.225,1.206-1.221,2.065-1.952,3.034a8.012,8.012,0,0,0,.543,9.926,7.392,7.392,0,0,0,9.6.782,12.115,12.115,0,0,0,4.278-8.708,3.3,3.3,0,0,0-.288-2.022,1.227,1.227,0,0,0-1.727-.468c.037-.806,1.572-.882,2.142-1.435a2.217,2.217,0,0,0,.461-1.874,11.811,11.811,0,0,1-.261-1.986,1.6,1.6,0,0,1,1.022-1.543A17.123,17.123,0,0,0,15.713,0" transform="translate(87 43)" fill="#fafafa"/>
    <path id="Fill_45-2" data-name="Fill 45" d="M.578.743A37.693,37.693,0,0,1,12.166.228,52.362,52.362,0,0,1,18,6.88,11.426,11.426,0,0,1,14.936,11a29.386,29.386,0,0,1-4.067-7.754C7.56,3.68,4.98,6.058,1.893,7.323A5.6,5.6,0,0,1,.578.743" transform="translate(96 64)" fill="#ffab91"/>
    <path id="Fill_47-2" data-name="Fill 47" d="M1.047.013c.122-.062.211.115.167.235A5.151,5.151,0,0,0,.847,3.737,18.225,18.225,0,0,0,1.988,6.8c.051.114-.074.27-.157.157C.8,5.576-1.251,1.171,1.047.013" transform="translate(97 64)" fill="#f0b729"/>
    <path id="Fill_49-2" data-name="Fill 49" d="M2.331.724c-.205.008-.41.015-.615.017-.132,0-.183-.183-.044-.213C2.316.392,2.969.3,3.619.189A5.887,5.887,0,0,1,4.646,0a.313.313,0,1,1,.03.624A4.613,4.613,0,0,0,.344,4.853c-.012.184-.309.2-.327.013A4.342,4.342,0,0,1,2.331.724" transform="translate(93 65)" fill="#cccbca"/>
    <path id="Fill_51-2" data-name="Fill 51" d="M.379.049c.964.946,1.78,1.664,2.914,1.632a9.073,9.073,0,0,0,3.52-1.3c.189-.1.262.384.091.531C4.925,2.619,1.715,4.688.049.726-.115.338.169-.158.379.049" transform="translate(93 61)" fill="#cccbca"/>
    <path id="Fill_53" data-name="Fill 53" d="M.34.114C1.552,2.752,3.891,4.417,6.8,3.077c.156-.072.276.188.129.273C4.268,4.885.136,3.652,0,.175A.175.175,0,0,1,.34.114" transform="translate(93 54)" fill="#cccbca"/>
    <path id="Fill_55" data-name="Fill 55" d="M.087,9.58c1.652-1.395,3.43-2.607,4.966-4.13A41.827,41.827,0,0,0,9.349.156c.244-.336.81-.081.609.3A22.873,22.873,0,0,1,.439,9.972c-.254.121-.6-.18-.352-.392" transform="translate(106 69)" fill="#cccbca"/>
    <path id="Fill_57" data-name="Fill 57" d="M7.725,2.026c-1.085,2.747-.47,8.907-.115,9.29a1.111,1.111,0,0,1,.214,1.411c-.348.4-.991.287-1.493.114A15.592,15.592,0,0,1,0,8.7c.172-.153.466-.46.638-.613C2.679,6.273,1.94,2.718,1.693,0Z" transform="translate(109 35)" fill="#ffab91"/>
    <path id="Fill_59" data-name="Fill 59" d="M.367,3.5C.3,2.308.11,1.09,0,0L7,2.105A13.15,13.15,0,0,0,6.29,7C4.327,5.822,2.3,4.7.367,3.5" transform="translate(110 35)" fill="#ff8a65"/>
    <path id="Fill_61" data-name="Fill 61" d="M13.4,2.437c3,3.562,7.494,12.4,2.019,15.806a6.573,6.573,0,0,1-6.1.012A18.194,18.194,0,0,1,4.44,14.426a7.311,7.311,0,0,1-2.375.494A2.27,2.27,0,0,1,.129,13.848a1.283,1.283,0,0,1,.773-1.8C5.887,10.933,8.4,4.722,9.487,0,9.5-.053,12,1.207,12.242,1.371A5.863,5.863,0,0,1,13.4,2.437" transform="translate(105 19)" fill="#ffab91"/>
    <path id="Fill_63" data-name="Fill 63" d="M.02.456A.88.88,0,0,1,1.2.079c.262.083.855.371.793.882a.023.023,0,0,1-.013.018c-.249.11-.568-.247-.818-.311C.8.576.478.8.128.732A.2.2,0,0,1,.02.456" transform="translate(106 32)" fill="#ff8a65"/>
    <path id="Fill_65" data-name="Fill 65" d="M.021.194A.22.22,0,0,1,.355.036,1.36,1.36,0,0,1,.781.783,2.594,2.594,0,0,1,1,1.724c-.019.262-.253.358-.417.2A2.376,2.376,0,0,1,.167,1.08,1.552,1.552,0,0,1,.021.194" transform="translate(118 25)" fill="#212121"/>
    <path id="Fill_67" data-name="Fill 67" d="M.021.194A.22.22,0,0,1,.355.036,1.36,1.36,0,0,1,.781.783,2.591,2.591,0,0,1,1,1.723c-.019.262-.253.358-.417.2A2.367,2.367,0,0,1,.167,1.08,1.556,1.556,0,0,1,.021.194" transform="translate(113 27)" fill="#212121"/>
    <path id="Fill_69" data-name="Fill 69" d="M.006.775A1.145,1.145,0,0,1,.994.029c.3-.052.859-.074,1,.3A.052.052,0,0,1,1.98.393c-.234.168-.6.078-.865.157C.786.648.525.9.2.995A.171.171,0,0,1,.006.775" transform="translate(116 22)" fill="#212121"/>
    <path id="Fill_71" data-name="Fill 71" d="M.01,1.55A1.872,1.872,0,0,1,1.491.057c.448-.1,1.288-.147,1.5.6A.126.126,0,0,1,2.97.785c-.351.336-.893.155-1.3.315C1.179,1.3.788,1.805.3,1.989c-.175.065-.341-.181-.289-.44" transform="translate(110 23)" fill="#212121"/>
    <path id="Fill_73" data-name="Fill 73" d="M11.227,0A19.927,19.927,0,0,0,0,4.812c.349,1,.628,1.968.977,2.971A25,25,0,0,0,6.24,9.646c1.534.392,4.271.584,5.654-.1,1.959-3.019,1.05-6.37-.667-9.547" transform="translate(110 28)" fill="#fafafa"/>
    <path id="Fill_75" data-name="Fill 75" d="M.072.132a2.392,2.392,0,0,1,2.051.3A22.907,22.907,0,0,1,4.969,1.864c.065.042.021.156-.052.133a16.715,16.715,0,0,1-2.048-.9C2.032.7,1.055.025.124.354-.007.4-.049.185.072.132" transform="translate(106 30)" fill="#fafafa"/>
    <path id="Fill_77" data-name="Fill 77" d="M.252.052A7.956,7.956,0,0,0,4.958,2.77c.056.015.055.156,0,.169C3.221,3.3,1.333,1.987.048.35c-.141-.18.064-.469.2-.3" transform="translate(108 33)" fill="#fafafa"/>
    <path id="Fill_143" data-name="Fill 143" d="M.1.049C.137-.028.3-.01.3.069A1.477,1.477,0,0,0,.85,1.1c.3.251.773.329,1.071.563.174.137.04.31-.206.33A1.836,1.836,0,0,1,.3,1.259,1.092,1.092,0,0,1,.1.049" transform="translate(8 39)" fill="#ff8a65"/>
    <path id="Fill_145" data-name="Fill 145" d="M2.845,0c.139-.021.216.094.094.138A7.321,7.321,0,0,0,1.3.891,6.275,6.275,0,0,0,.274,1.958C.2,2.034-.005,2,0,1.912.05,1.076,1.542.2,2.845,0" transform="translate(4 39)" fill="#ff8a65"/>
    <path id="Fill_147" data-name="Fill 147" d="M.039.052A1.716,1.716,0,0,1,1.055.116a1.372,1.372,0,0,1,.9.517c.075.117.049.351-.049.364-.292.039-.6-.254-.888-.372C.694.49.362.423.038.27c-.05-.024-.053-.2,0-.217" transform="translate(8 41)" fill="#ff8a65"/>
    <path id="Fill_149" data-name="Fill 149" d="M26.715.125a3.132,3.132,0,0,0-2.807.6A8.2,8.2,0,0,0,22.035,2.99a66.234,66.234,0,0,0-7.779,17.5c-.976-3.49.117-3.688-2.4-5.357S4.5,13.89,2.1,15.71C-.05,17.337-.009,17.6,0,20.259A13.632,13.632,0,0,0,1.556,27.44a13.812,13.812,0,0,0,4.179,4.843c3.519,2.34,8.292,2.055,12.255.538s7.383-4.1,11.01-6.276" transform="translate(7 36)" fill="#1d19bf"/>
    <path id="Fill_151" data-name="Fill 151" d="M.007,5.374C.335,4.245,1.9,3.877,3.179,3.752a9.143,9.143,0,0,0-2.473.064C.628,3.829.626,3.7.657,3.632,1.307,2.269,3.761,2.445,5.03,2.6c.354.045.713.11,1.07.19a1.923,1.923,0,0,1,.153-.144A7.683,7.683,0,0,0,5.212,2.5a13.709,13.709,0,0,0-3.827-.066c-.078.013-.08-.119-.049-.184C1.986.883,4.44,1.06,5.709,1.219a9.309,9.309,0,0,1,2.918.826A1.86,1.86,0,0,1,8.873.336.9.9,0,0,1,10.144.21a3.4,3.4,0,0,0,.463,2.729c.368.407.915.625,1.3,1.02A1.828,1.828,0,0,1,12.4,5.4a2,2,0,0,1-.756,1.412A52.609,52.609,0,0,1,17,19.491a7.1,7.1,0,0,1-6.841,2.338A50.084,50.084,0,0,0,8.687,7.711C5.8,7.117,4.346,5.934,1.468,6.559c.107-1.1,1.512-1.288,2.407-1.531a13.689,13.689,0,0,0-3.79.519c-.076.025-.1-.105-.078-.174" transform="translate(0 36)" fill="#ffab91"/>
    <path id="Fill_153" data-name="Fill 153" d="M.3,4.347a12.531,12.531,0,0,0,2.72.87A5.546,5.546,0,0,0,5.93,4.671a8.213,8.213,0,0,0,3.7-4.55c.1-.236.413-.095.364.159A7.429,7.429,0,0,1,6.242,5.3C4.479,6.21,1.639,6.4.078,4.836-.105,4.653.063,4.274.3,4.347" transform="translate(7 52)" fill="#07184f"/>
    <path id="Fill_155" data-name="Fill 155" d="M.027,7.764A16.66,16.66,0,0,0,2.57.215.23.23,0,0,1,3,.125a8.558,8.558,0,0,1,.419,7.023c-.054.117-.2.05-.183-.081a11.063,11.063,0,0,0-.295-5.855A14.17,14.17,0,0,1,.2,7.953C.1,8.088-.064,7.9.027,7.764" transform="translate(17 56)" fill="#07184f"/>
    <path id="Fill_157" data-name="Fill 157" d="M.9,4.394A1.921,1.921,0,0,1,0,4.88Q2.66,7.408,5.267,10A7.868,7.868,0,0,0,8,7.149C6.692,4.863,5.37,2.437,3.985,0A12.86,12.86,0,0,1,.9,4.394" transform="translate(58 137)" fill="#ffab91"/>
    <path id="Fill_159" data-name="Fill 159" d="M18.962,6.8A35.214,35.214,0,0,0,0,0L.233,2.9A8.043,8.043,0,0,0,3.659,8.676C12.288,14.812,20.345,23.887,28.3,30.912c.707.625,3.742-2.267,4.11-2.723s2.875-3.8,2.569-4.3A65.322,65.322,0,0,0,18.962,6.8" transform="translate(30 114)" fill="#d8d3a7"/>
    <path id="Fill_161" data-name="Fill 161" d="M1.358,3.131A2.284,2.284,0,0,0,.785,4.406C.739,4.9.8,5.4.8,5.892c-.01,1.188-1.347,9.84-.532,10.6a2.25,2.25,0,0,0,2.665.145A9.5,9.5,0,0,0,7.216,11.7c.8-2.056.94-4.328,2.007-6.278.41-.748,1.252-1.6.43-2.424A16.565,16.565,0,0,0,4.836.021a.244.244,0,0,0-.323.306c.127.4.4,1.122-.039,1.418a3.022,3.022,0,0,1-1.2.274A3.55,3.55,0,0,0,1.358,3.131" transform="translate(61 144)" fill="#fff6d2"/>
    <path id="Fill_163" data-name="Fill 163" d="M4.888,50.144C.231,34.13-.589,17.3.336.618a61.241,61.241,0,0,1,14.518-.3A104,104,0,0,1,9.531,52Z" transform="translate(26 69)" fill="#d8d3a7"/>
    <path id="Fill_165" data-name="Fill 165" d="M1.727.441A2.57,2.57,0,0,1,.606,0C.437,2.491.242,4.981,0,7.468a10.662,10.662,0,0,0,4.626.481C5.686,5.47,6.862,2.892,8,.257A17.09,17.09,0,0,1,1.727.441" transform="translate(38 154)" fill="#ffab91"/>
    <path id="Fill_167" data-name="Fill 167" d="M11.97,18.61A35.813,35.813,0,0,0,6.214,0L4.274,1.966a8.34,8.34,0,0,0-2.2,6.158C2.527,18.464.562,30.179,0,40.55-.049,41.473,3.71,42,4.24,42s4.316-.151,4.5-.691a69.04,69.04,0,0,0,3.228-22.7" transform="translate(38 114)" fill="#edeac8"/>
    <path id="Fill_169" data-name="Fill 169" d="M10.734,0A2.179,2.179,0,0,0,9.42.322c-.4.256-.737.6-1.111.891-.9.7-8.238,4.818-8.3,5.9A2.267,2.267,0,0,0,1.54,9.247a9.3,9.3,0,0,0,6.367.359C9.951,9,11.746,7.753,13.872,7.415c.816-.13,1.977.012,2.09-1.111A16.261,16.261,0,0,0,15.223.829a.239.239,0,0,0-.43-.066c-.221.334-.6.973-1.091.814-.408-.132-.638-.5-.95-.762A3.562,3.562,0,0,0,10.734,0" transform="translate(27 159)" fill="#fff6d2"/>
    <path id="Fill_171" data-name="Fill 171" d="M15.552,54.111C12.007,42.07,9.578,17.016,9.578,17.016S0,11.309,0,.061C5.241-.484,20.588,2.773,25.82,3.4A104.646,104.646,0,0,1,20.335,56Z" transform="translate(25 69)" fill="#edeac8"/>
    <g id="Group_175" data-name="Group 175" transform="translate(28)">
      <path id="Clip_174-2" data-name="Clip 174" d="M0,0H23V26H0Z" fill="none"/>
      <g id="Group_175-2" data-name="Group 175" clip-path="url(#clip-path-7)">
        <path id="Fill_173" data-name="Fill 173" d="M17.331,25.175A48.04,48.04,0,0,0,20.676,14.9c.186-.909,1.162-1.523,1.646-2.315a3.756,3.756,0,0,0,.624-2.647,3.436,3.436,0,0,0-1.632-2.125A10.26,10.26,0,0,0,18.756,6.8a4.525,4.525,0,0,0-.58-2.464,12.945,12.945,0,0,0-1.33-2.179c-.554-.784-1.242-1.642-2.2-1.7a2.188,2.188,0,0,0-1.656.752,6.452,6.452,0,0,0-1,1.579A7.678,7.678,0,0,0,6.264,0a2.173,2.173,0,0,0-1.45.393,1.688,1.688,0,0,0-.31,1.9,4.964,4.964,0,0,0,1.273,1.6A4.484,4.484,0,0,0,.934,5.621a2.821,2.821,0,0,0-.5,2.421,7.244,7.244,0,0,0,1.1,1.711,1.848,1.848,0,0,1,.29,1.912c-.357.6-1.193.755-1.6,1.32a1.268,1.268,0,0,0,.094,1.56,1.278,1.278,0,0,0,1.554.21c.207.117.7.453.9.57a2.246,2.246,0,0,0-.455.669.759.759,0,0,0,.1.766,1.239,1.239,0,0,0,.942.245,7.439,7.439,0,0,1,4.124,1.277c3,2.04,5.283,5.323,8.009,7.717.744-.415,1.482-.052,1.834-.825" fill="#190f52"/>
      </g>
    </g>
    <path id="Fill_176" data-name="Fill 176" d="M.275,4.73C1.36,7.8.745,14.689.39,15.117A1.35,1.35,0,0,0,.176,16.7c.348.449.991.321,1.493.127A15.564,15.564,0,0,0,8,12.191c-.172-.171-.467-.514-.639-.685C5.321,9.478,6.06,3.039,6.307,0Z" transform="translate(40 19)" fill="#ffab91"/>
    <path id="Fill_178" data-name="Fill 178" d="M6.683,5.552C6.747,4.375,6.889,1.074,7,0L0,4.175A12.694,12.694,0,0,1,.716,9C2.694,7.839,4.733,6.733,6.683,5.552" transform="translate(40 20)" fill="#ff8a65"/>
    <path id="Fill_180" data-name="Fill 180" d="M.445,3.867c-1,4.491-.8,14.37,5.811,15.1a6.484,6.484,0,0,0,5.535-2.593,16.948,16.948,0,0,0,2.578-5.535,7.439,7.439,0,0,0,2.392-.569A2.13,2.13,0,0,0,18,8.479a1.379,1.379,0,0,0-1.571-1.29c-1.547.343-2.8,2.182-3,.671C12.01-3.161,5.088,2.631,2.818,0,2.78-.043,1.118,2.162.983,2.411A5.456,5.456,0,0,0,.445,3.867" transform="translate(31 9)" fill="#ffab91"/>
    <path id="Fill_182" data-name="Fill 182" d="M1.933.133C1.478-.217.937.191.568.59c-.242.262-.752.952-.5,1.4A.018.018,0,0,0,.088,2c.3-.066.5-.632.735-.868.34-.338.762-.345,1.1-.657A.239.239,0,0,0,1.933.133" transform="translate(46 17)" fill="#ff8a65"/>
    <path id="Fill_184" data-name="Fill 184" d="M.682.081A.387.387,0,0,0,.169.116,1.014,1.014,0,0,0,.028.959a1.729,1.729,0,0,0,.231.9A.4.4,0,0,0,.9,1.817,1.674,1.674,0,0,0,.973.9,1.07,1.07,0,0,0,.682.081" transform="translate(32 17)" fill="#212121"/>
    <path id="Fill_186" data-name="Fill 186" d="M.682.081A.387.387,0,0,0,.169.116,1.014,1.014,0,0,0,.028.959a1.729,1.729,0,0,0,.231.9A.4.4,0,0,0,.9,1.817,1.674,1.674,0,0,0,.973.9,1.07,1.07,0,0,0,.682.081" transform="translate(38 17)" fill="#212121"/>
    <path id="Fill_188" data-name="Fill 188" d="M2.938.3A2.048,2.048,0,0,0,1.161.11C.729.221-.036.5,0,.943A.059.059,0,0,0,.061,1C.477,1.033.906.749,1.316.681c.5-.083,1,.023,1.5-.064.175-.031.25-.211.125-.318" transform="translate(32 13)" fill="#212121"/>
    <path id="Fill_190" data-name="Fill 190" d="M1.959.3A.985.985,0,0,0,.774.11C.486.221-.023.5,0,.943,0,.972.016.993.041,1,.318,1.033.6.749.877.681c.334-.083.669.023,1-.064A.209.209,0,0,0,1.959.3" transform="translate(38 13)" fill="#212121"/>
    <path id="Fill_192" data-name="Fill 192" d="M0,.99A17.414,17.414,0,0,1,11.39.926c.19,1.057.42,2.052.61,3.11a20.426,20.426,0,0,1-3.4,3.8C7.542,8.806,5.411,10.072,3.965,10,.95,8.013.105,4.582,0,.99" transform="translate(31 19)" fill="#fafafa"/>
    <path id="Fill_194" data-name="Fill 194" d="M4.836,0A3.5,3.5,0,0,0,2.59,1.261,27.49,27.49,0,0,0,.014,3.89c-.053.068.059.147.133.092A20.873,20.873,0,0,0,2.07,2.2C2.84,1.45,3.623.384,4.894.22,5.072.2,5.007-.012,4.836,0" transform="translate(41 17)" fill="#fafafa"/>
    <path id="Fill_196" data-name="Fill 196" d="M2.768.069A7.313,7.313,0,0,1,.016,2.921c-.038.026,0,.09.043.077A5.2,5.2,0,0,0,2.99.136c.058-.131-.162-.193-.222-.067" transform="translate(42 20)" fill="#fafafa"/>
    <path id="Fill_198" data-name="Fill 198" d="M13.831,6.532a8.281,8.281,0,0,1,1.88-3.294A48.257,48.257,0,0,0,25.913,0a5.745,5.745,0,0,1,2.355,4.93,20.718,20.718,0,0,0,6.279,1.717c2.09.363,4.3,1.064,5.5,2.745A6.34,6.34,0,0,1,40.9,14a11.6,11.6,0,0,1-3.8,6.959,10.6,10.6,0,0,1-.44,9.85c-.513.845-1.18,1.773-.9,2.713a9.084,9.084,0,0,1-2.889,9.442,9.624,9.624,0,0,1-2.335,10.073l.217-.17a23.819,23.819,0,0,1-10.319,2.117,61.166,61.166,0,0,1-10.358-1.52,22.533,22.533,0,0,1-6.024-1.894A7.472,7.472,0,0,1,.123,47.005a4.493,4.493,0,0,1,2.384-5.139A12.3,12.3,0,0,1,3.16,29.93a5.532,5.532,0,0,1-1.075-4.172,7.194,7.194,0,0,1,1.938-4.532c-1.34-2.4,1.292-11.085,3.465-11.96S12.037,8,13.831,6.532" transform="translate(23 27)" fill="#4231e8"/>
    <path id="Fill_200" data-name="Fill 200" d="M.8.014a94.445,94.445,0,0,0,28.05.373c.145-.02.222.124.072.153A79.963,79.963,0,0,1,.5.9C-.335.754-.046-.121.8.014" transform="translate(27 48)" fill="#07184f"/>
    <path id="Fill_202" data-name="Fill 202" d="M1.7.027c.109-.073.312.012.3.129a17.771,17.771,0,0,1-.738,2.357A8.693,8.693,0,0,0,1.2,5.549c.05.482-.913.645-1.028.154C-.22,4.031-.032,1.189,1.7.027" transform="translate(39 30)" fill="#07184f"/>
    <path id="Fill_204" data-name="Fill 204" d="M2.694.07c.152-.183.364.024.292.249A34.908,34.908,0,0,0,1.063,6.87a20.648,20.648,0,0,0,.387,7.374c.17.725-.758,1.086-.917.36-1-4.527-.767-11,2.161-14.533" transform="translate(37 35)" fill="#07184f"/>
    <path id="Fill_206" data-name="Fill 206" d="M1.879.02c.064-.07.15.054.112.155a15,15,0,0,0-.964,9.2c.142.595-.472.889-.616.3-.8-3.24-.5-7.507,1.468-9.66" transform="translate(36 49)" fill="#07184f"/>
    <path id="Fill_208" data-name="Fill 208" d="M3.718.035c.107-.079.324-.018.274.115-.723,1.914-1.843,3.66-2.21,5.667-.371,2.033.425,3.952.172,5.93-.039.305-.579.324-.763.107C-1.363,8.847.522,2.382,3.718.035" transform="translate(32 58)" fill="#07184f"/>
    <path id="Fill_210" data-name="Fill 210" d="M3.547.051c.241-.172.551.126.423.342C1.952,3.808.595,6.949,2.662,10.7c.454.824-1.478-.229-1.869-1.084C-.805,6.125-.037,2.6,3.547.051" transform="translate(31 70)" fill="#07184f"/>
    <path id="Fill_212" data-name="Fill 212" d="M.043.206A.309.309,0,0,1,.533.064C1.654.807,2.057,2.526,2.784,3.616c.973,1.463,2.837,4.5,5.057,3.922a.118.118,0,1,1,.077.224c-2.067.822-3.588-.641-4.841-2.042C1.955,4.466-.341,1.961.043.206" transform="translate(43 71)" fill="#07184f"/>
    <path id="Fill_214" data-name="Fill 214" d="M.049,2.654A10.986,10.986,0,0,1,2.274,1.461,14.576,14.576,0,0,0,4.769.034c.087-.072.283-.018.217.063A6.4,6.4,0,0,1,.441,3c-.315.029-.546-.2-.393-.344" transform="translate(23 69)" fill="#07184f"/>
    <path id="Fill_216" data-name="Fill 216" d="M.537.019A78.029,78.029,0,0,0,12.756,2.069c4.4.375,8.755.188,13.17.184.076,0,.107.093.025.107C17.685,3.792,8.3,2.639.332.706-.228.57-.025-.122.537.019" transform="translate(26 68)" fill="#07184f"/>
    <path id="Fill_218" data-name="Fill 218" d="M.427,0A52.53,52.53,0,0,1,6.18.656c2.45.266,4.921.431,7.4.506C18.033,1.3,22.427.956,26.869.882c.143,0,.185.136.045.166a59.512,59.512,0,0,1-13.66.915C11.17,1.912,9.086,1.786,7.022,1.6A29.6,29.6,0,0,1,.233.571C-.154.432-.038,0,.427,0" transform="translate(28 58)" fill="#07184f"/>
    <path id="Fill_220" data-name="Fill 220" d="M.344,2.21c1.757-.3,3.566.531,5.4.271A13.478,13.478,0,0,0,11.86.015c.083-.061.191.076.114.156a11.389,11.389,0,0,1-5.794,3.5c-1.8.394-4.57.706-6.06-.748A.431.431,0,0,1,.344,2.21" transform="translate(37 33)" fill="#07184f"/>
    <path id="Fill_222" data-name="Fill 222" d="M7.457,0c4.57,3.329,5.213,6.529,8.478,11.176l8.18,11.643c.944,1.344,1.93,2.818,1.883,4.468a7.4,7.4,0,0,1-1.977,4.151,76.787,76.787,0,0,1-5.866,6.62,9.364,9.364,0,0,1-4.106,2.793,6.82,6.82,0,0,1-5.719-1.586,9.009,9.009,0,0,1-3.547-7.133A6.576,6.576,0,0,1,9.4,25.987,31.386,31.386,0,0,1,0,13.93" transform="translate(54 36)" fill="#4231e8"/>
    <path id="Fill_224" data-name="Fill 224" d="M.188.119c2.64-.588,5.985,1.118,7.774,2.672.1.089-.021.268-.155.19a17.633,17.633,0,0,0-3.8-1.687C2.765.918,1.429.951.212.584-.023.514-.105.184.188.119" transform="translate(62 61)" fill="#07184f"/>
    <path id="Fill_226" data-name="Fill 226" d="M.057,1.084A2.861,2.861,0,0,1,3.09.056,4.257,4.257,0,0,1,5.97,1.741c.071.09.005.3-.086.252a6.677,6.677,0,0,0-2.951-.975C2,1.01,1.128,1.725.227,1.642c-.18-.017-.306-.329-.17-.559" transform="translate(64 59)" fill="#07184f"/>
    <path id="Fill_228" data-name="Fill 228" d="M.526.125a.227.227,0,0,1,.429.1C.9,3.73.836,6.945,2.988,9.892c.045.061-.05.147-.1.088C.774,7.437-.89,3.5.526.125" transform="translate(54 45)" fill="#07184f"/>
    <path id="Fill_230" data-name="Fill 230" d="M.127.013A8.268,8.268,0,0,1,1.771,1.326c.476.417,1.181.856,1.228,1.386.018.2-.349.363-.628.253-.713-.282-.98-.872-1.33-1.34A5.782,5.782,0,0,1,0,.064C-.012.016.063-.02.127.013" transform="translate(52 48)" fill="#07184f"/>
    <path id="Fill_232" data-name="Fill 232" d="M.187,13.363a20.375,20.375,0,0,1,3.046-4.35A48.829,48.829,0,0,1,8.6,9.356,46.635,46.635,0,0,0,18.249,0,5.416,5.416,0,0,1,21.89,2.35,5.47,5.47,0,0,1,22.916,6.6C19.83,8.3,13.482,10.24,10.4,11.947a3.6,3.6,0,0,1-1.151,2.779,4.106,4.106,0,0,1-2.4,1.071c-.007.033-.015.065-.02.1-.082.473.168.933.059,1.386a.468.468,0,0,1-.557.347c-.7-.247-.873-1.116-.823-1.782,0-.007,0-.014,0-.021A3.172,3.172,0,0,0,5.1,17.39a.6.6,0,0,1-1.173.21A3.216,3.216,0,0,1,4.2,15.048a6.1,6.1,0,0,1,.636-.969l-.061-.053c-.775.954-1.818,1.836-1.418,3.1a.513.513,0,0,1-.829.528,2.358,2.358,0,0,1-.342-2.818,11.165,11.165,0,0,1,1.1-1.64c.053-.072.1-.144.155-.216-.119-.082-.238-.164-.357-.241A5.484,5.484,0,0,0,1.737,14.05a1.57,1.57,0,0,0-.236.871,5.48,5.48,0,0,1-.048.913,1.017,1.017,0,0,1-.5.734c-.276.135-.845.126-.824-.178.064-.92-.367-2.2.055-3.026" transform="translate(43 67)" fill="#ffab91"/>
    <g id="Group_236" data-name="Group 236" transform="translate(186 41)">
      <path id="Clip_235-2" data-name="Clip 235" d="M0,0H17V43H0Z" fill="none"/>
      <g id="Group_236-2" data-name="Group 236" clip-path="url(#clip-path-8)">
        <path id="Fill_234" data-name="Fill 234" d="M.859,0A11.178,11.178,0,0,1,8.048,5.918a23.7,23.7,0,0,1,2.357,9.454,31.884,31.884,0,0,0,.96,7.595c.781,2.405,2.294,4.462,3.559,6.633s2.321,4.648,2.026,7.168a7.222,7.222,0,0,1-4.157,5.661,7.232,7.232,0,0,1-6.86-.675,2.726,2.726,0,0,1-.772-.717,3.447,3.447,0,0,1-.379-.919L0,24.353Z" fill="#10b2ae"/>
      </g>
    </g>
    <path id="Fill_237" data-name="Fill 237" d="M.007,2.33C.786.064,3.983-.593,6.054.552c2.022,1.118,2.9,4.223.488,5.436-.1.05-.233-.069-.137-.149C8.227,4.3,7.619,1.753,5.4.82,3.332-.05,1.53.963.309,2.475c-.1.129-.353,0-.3-.145" transform="translate(195 72)" fill="#00796b"/>
    <path id="Fill_239" data-name="Fill 239" d="M2.073.749A4.52,4.52,0,0,1,6.98.7c.048.036,0,.118-.055.1-1.592-.464-3.139-.656-4.6.327C.943,2.065.666,3.412.356,4.9a.138.138,0,0,1-.261.011C-.339,3.362.785,1.589,2.073.749" transform="translate(194 69)" fill="#00796b"/>
    <path id="Fill_241" data-name="Fill 241" d="M1.909.011c.059-.041.118.04.077.09A8.5,8.5,0,0,0,.779,1.875,15.927,15.927,0,0,0,.23,3.927c-.025.08-.169.11-.188.008A4.515,4.515,0,0,1,1.909.011" transform="translate(194 68)" fill="#00796b"/>
    <path id="Fill_243" data-name="Fill 243" d="M5.834,1.492A2.462,2.462,0,0,0,7,1.282C6.509,3.824,6.041,6.37,5.618,8.923a9.624,9.624,0,0,1-4.463-.479C.809,5.728.379,2.889,0,0A15.151,15.151,0,0,0,5.834,1.492" transform="translate(177 150)" fill="#ffab91"/>
    <path id="Fill_245" data-name="Fill 245" d="M2.312,17.215A35.075,35.075,0,0,1,13.1,0l1.644,2.485a8.231,8.231,0,0,1,.911,6.771C12.659,19.54,11.97,31.839,10.074,42.42c-.168.941-4.4.488-4.98.348S.417,41.487.345,40.9a66.239,66.239,0,0,1,1.967-23.68" transform="translate(176 111)" fill="#cafdff"/>
    <path id="Fill_247" data-name="Fill 247" d="M6.861.371A2.274,2.274,0,0,1,8.115,1c.339.352.6.779.908,1.16.74.916,7.169,6.8,6.973,7.9a2.369,2.369,0,0,1-2.082,1.777,9.774,9.774,0,0,1-6.543-1.161c-1.923-1.1-3.437-2.776-5.509-3.624C1.066,6.732-.146,6.6.014,5.443A16.736,16.736,0,0,1,2.107.126a.251.251,0,0,1,.452.036c.141.388.368,1.119.906,1.077A3.238,3.238,0,0,0,4.615.7,3.754,3.754,0,0,1,6.861.371" transform="translate(176 157)" fill="#fff6d2"/>
    <path id="Fill_249" data-name="Fill 249" d="M18.026,50.389c2.227-16.807.41-33.817-3.164-50.389A64.39,64.39,0,0,0,0,2.045,103.77,103.77,0,0,0,13.581,53Z" transform="translate(173 72)" fill="#cafdff"/>
    <path id="Fill_251" data-name="Fill 251" d="M5.027,1.033A1.939,1.939,0,0,0,6,.774c-.259,2.352-.5,4.707-.7,7.065A7.591,7.591,0,0,1,1.5,7.654C1.036,5.191.5,2.62,0,0A12.079,12.079,0,0,0,5.027,1.033" transform="translate(163 157)" fill="#ffab91"/>
    <path id="Fill_253" data-name="Fill 253" d="M1.161,17.366A34.729,34.729,0,0,1,9.924,0l1.648,2.3a8.4,8.4,0,0,1,1.244,6.5c-2.1,10.15-1.969,22.1-3.046,32.467-.1.922-3.976.758-4.511.661s-4.335-.937-4.436-1.5a68.286,68.286,0,0,1,.339-23.052" transform="translate(161 117)" fill="#cafdff"/>
    <path id="Fill_255" data-name="Fill 255" d="M5.983.071A2.049,2.049,0,0,1,7.177.6c.334.319.6.715.908,1.066C8.825,2.508,15.11,7.8,15,8.872a2.233,2.233,0,0,1-1.8,1.853A8.619,8.619,0,0,1,7.1,10.019C5.263,9.081,3.765,7.551,1.8,6.863,1.052,6.6-.071,6.545,0,5.418A16.814,16.814,0,0,1,1.594.137a.227.227,0,0,1,.419.006c.155.367.409,1.06.9.985A2.935,2.935,0,0,0,3.938.534,3.313,3.313,0,0,1,5.983.071" transform="translate(162 164)" fill="#fff6d2"/>
    <path id="Fill_257" data-name="Fill 257" d="M11.448,54.111c3.545-12.041,5.974-37.095,5.974-37.095S27,11.309,27,.061C21.759-.484,6.412,2.773,1.181,3.4A104.636,104.636,0,0,0,6.665,56Z" transform="translate(162 72)" fill="#cafdff"/>
    <path id="Fill_259" data-name="Fill 259" d="M17.344,14.986A11.047,11.047,0,0,0,18.219,8.1a3.4,3.4,0,0,0,.3-3.942A8.094,8.094,0,0,0,10.305.06,4.481,4.481,0,0,0,8.244.743,2.3,2.3,0,0,0,7.212,2.627a3.5,3.5,0,0,0-2.421.126A1.515,1.515,0,0,0,4.2,4.895,3.751,3.751,0,0,0,.525,6.211,2.183,2.183,0,0,0,0,7.393C-.064,8.36.755,9.118,1.5,9.709c-.5-.214-1.046.361-1.265.868a1.961,1.961,0,0,0,.126,1.607,7.178,7.178,0,0,0,.961,1.332A17.688,17.688,0,0,1,5.076,22Z" transform="translate(165 7)" fill="#190f52"/>
    <path id="Fill_261" data-name="Fill 261" d="M7.725,4.73C6.64,7.8,7.255,14.689,7.61,15.117A1.35,1.35,0,0,1,7.824,16.7c-.348.449-.991.321-1.493.127A15.562,15.562,0,0,1,0,12.191c.172-.171.467-.514.638-.685C2.679,9.479,1.94,3.039,1.693,0Z" transform="translate(167 23)" fill="#ffab91"/>
    <path id="Fill_263" data-name="Fill 263" d="M.317,5.553C.253,4.375.111,1.074,0,0L7,4.176A12.7,12.7,0,0,0,6.284,9C4.306,7.839,2.266,6.733.317,5.553" transform="translate(168 23)" fill="#ff8a65"/>
    <path id="Fill_265" data-name="Fill 265" d="M17.555,4.631c1,4.561.8,14.594-5.811,15.339a6.446,6.446,0,0,1-5.536-2.634A17.34,17.34,0,0,1,3.63,11.714a7.334,7.334,0,0,1-2.392-.578A2.161,2.161,0,0,1,0,9.316a1.385,1.385,0,0,1,1.57-1.31c1.547.349,2.805,2.217,3,.682C4.924,5.9,5.643,2,8.594.574A7.784,7.784,0,0,1,14.417.56a5.3,5.3,0,0,1,3.138,4.071" transform="translate(165 12)" fill="#ffab91"/>
    <path id="Fill_267" data-name="Fill 267" d="M.067.133c.455-.351,1,.058,1.364.457.242.261.752.951.5,1.4A.018.018,0,0,1,1.912,2c-.3-.066-.5-.633-.735-.868C.837.793.415.787.078.474A.238.238,0,0,1,.067.133" transform="translate(167 21)" fill="#ff8a65"/>
    <path id="Fill_269" data-name="Fill 269" d="M.318.081A.387.387,0,0,1,.831.116,1.015,1.015,0,0,1,.973.959a1.741,1.741,0,0,1-.231.9A.4.4,0,0,1,.1,1.817,1.675,1.675,0,0,1,.027.9,1.066,1.066,0,0,1,.318.081" transform="translate(181 20)" fill="#212121"/>
    <path id="Fill_271" data-name="Fill 271" d="M.318.081A.387.387,0,0,1,.831.116,1.014,1.014,0,0,1,.973.959a1.741,1.741,0,0,1-.231.9A.4.4,0,0,1,.1,1.817,1.675,1.675,0,0,1,.027.9,1.066,1.066,0,0,1,.318.081" transform="translate(176 20)" fill="#212121"/>
    <path id="Fill_273" data-name="Fill 273" d="M.041.3A.986.986,0,0,1,1.226.11c.288.112.8.394.773.834,0,.029-.015.05-.04.054C1.682,1.033,1.4.749,1.123.681.789.6.453.7.125.617A.208.208,0,0,1,.041.3" transform="translate(181 18)" fill="#212121"/>
    <path id="Fill_275" data-name="Fill 275" d="M.041.3A.986.986,0,0,1,1.227.11c.288.112.8.394.773.833,0,.028-.015.05-.04.054C1.683,1.033,1.4.749,1.123.681.79.6.454.7.125.617A.209.209,0,0,1,.041.3" transform="translate(175 17)" fill="#212121"/>
    <path id="Fill_277" data-name="Fill 277" d="M12,.99A17.41,17.41,0,0,0,.609.926C.42,1.983.189,2.979,0,4.036a20.438,20.438,0,0,0,3.4,3.8c1.062.969,3.193,2.235,4.639,2.16C11.05,8.013,11.895,4.582,12,.99" transform="translate(172 22)" fill="#fafafa"/>
    <path id="Fill_279" data-name="Fill 279" d="M.164,0A3.412,3.412,0,0,1,2.409,1.576,32.157,32.157,0,0,1,4.986,4.861a.089.089,0,0,1-.134.115A23.6,23.6,0,0,1,2.931,2.749C2.16,1.813,1.376.48.105.275-.072.246-.007-.015.164,0" transform="translate(168 20)" fill="#fafafa"/>
    <path id="Fill_281" data-name="Fill 281" d="M.232.091A9.092,9.092,0,0,0,2.984,3.9c.037.035,0,.12-.042.1C1.588,3.432.54,1.767.01.181-.048.007.172-.077.232.091" transform="translate(169 23)" fill="#fafafa"/>
    <path id="Fill_283" data-name="Fill 283" d="M19.378,2.76c2.737.68,5.762.321,8.4,1.269a3.076,3.076,0,0,1,1.385.909,1.644,1.644,0,0,1,.32,1.555c-.215.587-.8.943-1.257,1.381a3.678,3.678,0,0,0-1.089,3,9.983,9.983,0,0,1,6.4,2.092c3.271,2.375,4.568,6.621,4.7,10.611s-.7,7.956-.728,11.948c-.047,6.745,2.179,13.284,3.237,19.949a13.553,13.553,0,0,1,.2,3.765,32.841,32.841,0,0,1-1.163,4.293,14.43,14.43,0,0,0-.285,6.029A77.228,77.228,0,0,1,5.721,72.179c.1-3.652-1.819-7.1-2.19-10.738C3.06,56.823,5.442,52.313,5.26,47.676c-.107-2.736-1.1-5.35-1.931-7.964A70.822,70.822,0,0,1,.08,14.9c.113-2.37.43-4.926,2.086-6.655,1.8-1.879,4.655-2.252,7.27-2.513.5-1.461,1.154-2.391,1.1-3.931A2.211,2.211,0,0,1,10.7.643,1.433,1.433,0,0,1,11.931,0a4.268,4.268,0,0,1,1.426.3c2.058.688,3.835,1.9,5.956,2.442l.066.017" transform="translate(155 28)" fill="#20cece"/>
    <path id="Fill_285" data-name="Fill 285" d="M.556,3.764c.523-.827,2.625-2.671.767-3.351C1.018.3,1.26-.089,1.563.018c1.626.574.886,2.217.149,3.116A4.2,4.2,0,0,0,.538,6.457a9.065,9.065,0,0,0,1.7,3.654A23.542,23.542,0,0,1,6.134,22.037c.282,4.839-.487,9.653-.739,14.478a38.432,38.432,0,0,0,.2,7.2c.343,2.519,1.047,4.986,1.571,7.478,1.156,5.507.873,11.036.515,16.591-.018.273-.509.3-.493.019A68.526,68.526,0,0,0,7,53.358c-.373-2.4-1.03-4.762-1.519-7.147a34.121,34.121,0,0,1-.7-6.79c-.022-8.882,2.9-18.414-1.614-26.854C2.083,10.544.4,8.744.057,6.475a3.851,3.851,0,0,1,.5-2.712" transform="translate(179 31)" fill="#20cece"/>
    <path id="Fill_287" data-name="Fill 287" d="M.346,1.575a70.115,70.115,0,0,0,15.386.878,70.11,70.11,0,0,0,7.62-.834C25.9,1.2,28.337.577,30.821,0c.14-.032.256.129.114.179a55.324,55.324,0,0,1-15.008,2.7A68.242,68.242,0,0,1,.216,1.994c-.363-.063-.235-.481.13-.419" transform="translate(163 94)" fill="#20cece"/>
    <path id="Fill_289" data-name="Fill 289" d="M.179.053A.062.062,0,0,1,.3.066a83.407,83.407,0,0,0,.21,8.357A75.968,75.968,0,0,0,2,16.951c.011.047-.049.07-.064.023A40.44,40.44,0,0,1,.3,8.611,40.162,40.162,0,0,1,.179.053" transform="translate(192 60)" fill="#00796b"/>
    <path id="Fill_291" data-name="Fill 291" d="M3.479,5.945C5.044,4.756,4.6,2.283,6.008.9A3.94,3.94,0,0,1,9.939.262c1.184.5,1.579,1.779,1.947,2.945a2.527,2.527,0,0,1-1.415,3.067A45.713,45.713,0,0,0,5.264,8.66a3.865,3.865,0,0,1-1.146,2.911,5.448,5.448,0,0,1-.54.429A19.854,19.854,0,0,0,0,5.648c1.172.054,2.361.141,3.479.3" transform="translate(191 72)" fill="#ffab91"/>
    <path id="Fill_293" data-name="Fill 293" d="M.335.07A17.787,17.787,0,0,1,2.722,3.8,11.775,11.775,0,0,1,4,7.886a.1.1,0,0,1-.2.04C3.274,6.6,2.95,5.21,2.323,3.917A17.329,17.329,0,0,0,.058.408C-.121.193.155-.147.335.07" transform="translate(191 78)" fill="#00796b"/>
    <path id="Fill_295" data-name="Fill 295" d="M.068,10.724c1-.662,2.081-1.173,3.05-1.887a18.411,18.411,0,0,0,2.8-2.54A17.956,17.956,0,0,0,8.05,3.384q.426-.731.779-1.5A9.992,9.992,0,0,1,9.623.094c.1-.14.378-.13.377.081A7.694,7.694,0,0,1,8.7,3.4,17.9,17.9,0,0,1,6.431,6.556,14.8,14.8,0,0,1,.2,10.993a.152.152,0,0,1-.133-.269" transform="translate(166 79)" fill="#00796b"/>
    <path id="Fill_297" data-name="Fill 297" d="M21.372,40.522a4.2,4.2,0,0,0,.839-2.96,65.521,65.521,0,0,1-7.634-5.952l10.2-15.389A12.509,12.509,0,0,1,28,12.528a23,23,0,0,0-2.309-7.568,11.593,11.593,0,0,0-3.457-4.2,3.826,3.826,0,0,0-1.848-.75C18.8-.112,17.548,1.2,16.605,2.418,8.606,12.741,3.5,24.876,0,37.272a40.2,40.2,0,0,0,5.767,4.683C9.489,44.147,13.848,45.09,18.117,46a6.941,6.941,0,0,0,3.269-5c.039-.322-.327-.347-.014-.476" transform="translate(140 35)" fill="#20cece"/>
    <path id="Fill_299" data-name="Fill 299" d="M1.034,2.371A5.029,5.029,0,0,1,4.426,0a45.269,45.269,0,0,0,8.988,9.44,42.065,42.065,0,0,1,5-.346c.2.233.391.477.581.725A20.019,20.019,0,0,1,15.063,16c0-.02-.008-.04-.012-.061a3.7,3.7,0,0,1-2.236-1.08,3.779,3.779,0,0,1-1.072-2.8C8.869,10.332,2.953,8.379.079,6.657a5.87,5.87,0,0,1,.955-4.286" transform="translate(155 71)" fill="#ffab91"/>
    <path id="Fill_301" data-name="Fill 301" d="M.024,17.66A68.6,68.6,0,0,1,5.331,8.226,50.852,50.852,0,0,1,11.9.018.06.06,0,0,1,11.985.1C9.794,2.943,7.55,5.717,5.577,8.729A83.946,83.946,0,0,0,.426,17.877c-.131.269-.526.053-.4-.217" transform="translate(155 49)" fill="#00796b"/>
    <path id="Fill_303" data-name="Fill 303" d="M.312.012A8.83,8.83,0,0,1,3.974,1.99a3.038,3.038,0,0,1,.9,2.977.046.046,0,0,1-.09-.008A4.035,4.035,0,0,0,3.17,1.947,12.687,12.687,0,0,0,.134.475C-.132.367.035-.08.312.012" transform="translate(157 70)" fill="#00796b"/>
    <path id="Fill_305" data-name="Fill 305" d="M.675,2.944A5.424,5.424,0,0,1,3.79.009c.2-.07.3.3.1.381A5.437,5.437,0,0,0,1.009,3.16,9.108,9.108,0,0,0,.476,7.921c0,.072-.085.112-.115.044A6.654,6.654,0,0,1,.675,2.944" transform="translate(155 71)" fill="#00796b"/>
    <path id="Fill_307" data-name="Fill 307" d="M3.909.009c.067-.038.128.061.064.11A9.007,9.007,0,0,0,1.233,3.463a11.264,11.264,0,0,0-.877,4.38.142.142,0,1,1-.283.014A8.34,8.34,0,0,1,3.909.009" transform="translate(152 69)" fill="#00796b"/>
    <path id="Fill_309" data-name="Fill 309" d="M.009,1.873C.426,1.143,1.868.612,2.91.336A9.959,9.959,0,0,1,6.866.1c.226.033.142.243-.079.226a10.969,10.969,0,0,0-3.736.3A17.389,17.389,0,0,0,.193,1.984c-.118.053-.226-.038-.184-.111" transform="translate(147 66)" fill="#00796b"/>
    <path id="Fill_311" data-name="Fill 311" d="M.016,1.871A7.7,7.7,0,0,1,3.828.005c.136-.032.243.1.112.137a13.246,13.246,0,0,0-2.1.821C1.244,1.268.8,1.635.262,1.972c-.118.074-.32-.011-.246-.1" transform="translate(150 67)" fill="#00796b"/>
    <path id="Fill_313" data-name="Fill 313" d="M.012,6.74C.634,4.478,1.267,2.229,1.97.011,1.977-.011,2,0,2,.026,1.47,2.332.873,4.6.261,6.866c-.066.246-.318.123-.249-.126" transform="translate(163 45)" fill="#00796b"/>
  </g>
  <g id="Group_60-2" data-name="Group 60" transform="translate(23 63)">
    <path id="Fill_1-5" data-name="Fill 1" d="M20,9.99A10,10,0,1,1,9.989,0,10,10,0,0,1,20,9.99" transform="translate(5 17)" fill="#8d3fd0"/>
    <path id="Fill_3-5" data-name="Fill 3" d="M1.5,0A1.5,1.5,0,1,1,0,1.5,1.5,1.5,0,0,1,1.5,0" transform="translate(17 19)" fill="#a158ed"/>
    <path id="Fill_5-5" data-name="Fill 5" d="M6,2.5A2.458,2.458,0,0,1,3.594,5,2.357,2.357,0,0,1,1.74,4.1,2.384,2.384,0,0,1,1.3,3.251c-.307.169-.616.335-.929.492l-.006-.02A1.984,1.984,0,0,1,.205,1.7c.334.116.672.233,1.007.353l.013,0a2.45,2.45,0,0,1,.222-.689A2.4,2.4,0,0,1,3.588,0,2.455,2.455,0,0,1,6,2.5" transform="translate(22 23)" fill="#a158ed"/>
    <path id="Fill_7-5" data-name="Fill 7" d="M0,1.567A1.536,1.536,0,0,1,1.5,0,1.534,1.534,0,0,1,3,1.564,1.533,1.533,0,0,1,1.5,3.132c-.052,0-.105,0-.155-.006-.065.365-.127.726-.193,1.091-.043.257-.09.515-.133.772h0L.892,5A.981.981,0,0,1,.34,4.885a.64.64,0,0,1-.253-.26c.09-.205.18-.41.265-.619q.219-.532.413-1.075A1.577,1.577,0,0,1,0,1.567" transform="translate(16 14)" fill="#a158ed"/>
    <path id="Fill_9-5" data-name="Fill 9" d="M.241,3.566A2.462,2.462,0,0,1,0,2.5,2.5,2.5,0,1,1,.961,4.469a2.471,2.471,0,0,1-.72-.9" transform="translate(22 17)" fill="#a158ed"/>
    <path id="Fill_11-5" data-name="Fill 11" d="M2.777.715A1.464,1.464,0,0,1,3,1.5a1.5,1.5,0,1,1-3,0,1.309,1.309,0,0,1,.038-.323A1.5,1.5,0,0,1,2.777.715" transform="translate(14 35)" fill="#a158ed"/>
    <path id="Fill_13-5" data-name="Fill 13" d="M0,.389,0,.38A7.385,7.385,0,0,1,.9,0,10.438,10.438,0,0,1,2,1.232,6.973,6.973,0,0,0,1.389,2,1.7,1.7,0,0,1,0,.389" transform="translate(20 20)" fill="#a158ed"/>
    <path id="Fill_15-4" data-name="Fill 15" d="M8,4.025A2.26,2.26,0,0,1,5.536,6a2.263,2.263,0,0,1-2.47-1.971,1.546,1.546,0,0,1,.124-.612l-.035-.009c-.265-.14-.53-.28-.791-.423Q1.16,2.333,0,1.634A4.271,4.271,0,0,1,.855.528,2.672,2.672,0,0,1,1.772,0l.012.022c.628.557,1.239,1.124,1.828,1.71.2.193.393.393.584.588l.027.034a2.885,2.885,0,0,1,1.307-.3A2.264,2.264,0,0,1,8,4.025" transform="translate(18 31)" fill="#a158ed"/>
    <path id="Fill_17-3" data-name="Fill 17" d="M1.5,3A1.5,1.5,0,1,1,3,1.5,1.5,1.5,0,0,1,1.5,3" transform="translate(17 25)" fill="#a158ed"/>
    <path id="Fill_19-3" data-name="Fill 19" d="M0,2.5A2.533,2.533,0,0,1,2.564,0,2.581,2.581,0,0,1,3.95.4,2.472,2.472,0,0,1,5.125,2.407l.068,0h.794A3.047,3.047,0,0,1,5.316,4.59l-.05.042a7.627,7.627,0,0,1-.581-.726A2.557,2.557,0,0,1,2.879,4.978,2.131,2.131,0,0,1,2.568,5,2.534,2.534,0,0,1,0,2.5" transform="translate(2 23)" fill="#a158ed"/>
    <g id="Group_23-3" data-name="Group 23" transform="translate(0 31)">
      <path id="Clip_22-4" data-name="Clip 22" d="M0,0H5.874V4.722H0Z" transform="translate(0 0.105)" fill="none"/>
      <g id="Group_23-4" data-name="Group 23" clip-path="url(#clip-path-9)">
        <path id="Fill_21-3" data-name="Fill 21" d="M5.306,1.762c-.27.059-.541.125-.808.194A2.371,2.371,0,0,1,2.992,4.6,2.246,2.246,0,0,1,.12,3.114,2.385,2.385,0,0,1,1.544.122,2.225,2.225,0,0,1,4.12,1C4.3.843,4.471.682,4.644.516c.142-.131.28-.269.415-.407a2,2,0,0,1,.815,1.529c-.191.039-.38.079-.569.125" transform="translate(0 0.105)" fill="#a158ed"/>
      </g>
    </g>
    <path id="Fill_24-3" data-name="Fill 24" d="M0,2.487A2.444,2.444,0,0,1,2.394,0a2.443,2.443,0,0,1,2.4,2.482,2.5,2.5,0,0,1-.946,1.977Q4.577,5.5,5.4,6.474c.2.23.394.46.6.681a1.485,1.485,0,0,1-.554.631A1.378,1.378,0,0,1,4.594,8c-.085-.225-.172-.451-.269-.673-.337-.847-.7-1.687-1.085-2.515a2.272,2.272,0,0,1-.841.16A2.441,2.441,0,0,1,0,2.487" transform="translate(3 12)" fill="#a158ed"/>
    <path id="Fill_26-3" data-name="Fill 26" d="M0,1.5A1.5,1.5,0,1,1,1.5,3,1.5,1.5,0,0,1,0,1.5" transform="translate(8 28)" fill="#a158ed"/>
    <path id="Fill_28-3" data-name="Fill 28" d="M0,.743C0,.332.446,0,1,0S2,.331,2,.741a.79.79,0,0,1-.642.694c.057.183.123.368.188.552.119.334.245.666.379,1a1.58,1.58,0,0,1-.491-.006,1.254,1.254,0,0,1-.683-.334l-.013-.5c0-.232-.009-.461-.013-.693A.811.811,0,0,1,0,.743" transform="translate(11 15)" fill="#a158ed"/>
    <path id="Fill_30-3" data-name="Fill 30" d="M1.5,3A1.5,1.5,0,1,1,3,1.5,1.5,1.5,0,0,1,1.5,3" transform="translate(11 22)" fill="#a158ed"/>
    <path id="Fill_32-3" data-name="Fill 32" d="M1.5,3A1.5,1.5,0,1,1,3,1.5,1.5,1.5,0,0,1,1.5,3" transform="translate(12 31)" fill="#a158ed"/>
    <path id="Fill_34-3" data-name="Fill 34" d="M0,2.5A2.5,2.5,0,1,1,2.5,5,2.5,2.5,0,0,1,0,2.5" transform="translate(12 24)" fill="#a158ed"/>
    <path id="Fill_36-3" data-name="Fill 36" d="M3,1.5A1.5,1.5,0,1,1,1.5,0,1.5,1.5,0,0,1,3,1.5" transform="translate(8 25)" fill="#a158ed"/>
    <path id="Fill_38-3" data-name="Fill 38" d="M5,.829,4.936.871a8.834,8.834,0,0,1-1.024.923l-.041.032a1.777,1.777,0,0,1,.516,1.013,1.257,1.257,0,0,1,.019.234A2.074,2.074,0,0,1,2.207,5,2.077,2.077,0,0,1,0,3.077,1.974,1.974,0,0,1,1.6,1.229a2.371,2.371,0,0,1,.6-.076,2.435,2.435,0,0,1,.762.12l.011-.032Q3.227.67,3.476.1L3.5,0A2.4,2.4,0,0,1,5,.829" transform="translate(6 34)" fill="#a158ed"/>
    <g id="Group_42-3" data-name="Group 42" transform="translate(33 9)">
      <path id="Clip_41-4" data-name="Clip 41" d="M0,0H14.4V15.669H0Z" transform="translate(0.336 0.659)" fill="none"/>
      <g id="Group_42-4" data-name="Group 42" clip-path="url(#clip-path-10)">
        <path id="Fill_40-2" data-name="Fill 40" d="M14.4,7.827c0,4.328-3.216,7.838-7.194,7.842S0,12.171,0,7.842,3.216,0,7.194,0,14.4,3.5,14.4,7.827" transform="translate(0.336 0.659)" fill="#a158ed"/>
      </g>
    </g>
    <path id="Fill_43-3" data-name="Fill 43" d="M1.5,0A1.5,1.5,0,1,1,0,1.5,1.5,1.5,0,0,1,1.5,0" transform="translate(40 19)" fill="#8d3fd0"/>
    <path id="Fill_45-3" data-name="Fill 45" d="M3,0A3,3,0,1,1,0,3,3,3,0,0,1,3,0" transform="translate(34 12)" fill="#8d3fd0"/>
    <path id="Fill_47-3" data-name="Fill 47" d="M1.5,0A1.5,1.5,0,1,1,0,1.5,1.5,1.5,0,0,1,1.5,0" transform="translate(36 19)" fill="#8d3fd0"/>
    <path id="Fill_49-3" data-name="Fill 49" d="M1.5,0a1.5,1.5,0,0,0,0,3,1.5,1.5,0,1,0,0-3" transform="translate(31 6)" fill="#a158ed"/>
    <g id="Group_53-3" data-name="Group 53" transform="translate(22)">
      <path id="Clip_52-4" data-name="Clip 52" d="M0,0H4.152V4.3H0Z" transform="translate(0.123 0.387)" fill="none"/>
      <g id="Group_53-4" data-name="Group 53" clip-path="url(#clip-path-6)">
        <path id="Fill_51-3" data-name="Fill 51" d="M2.076,0c-2.765,0-2.77,4.3,0,4.3S4.846,0,2.076,0" transform="translate(0.123 0.386)" fill="#a158ed"/>
      </g>
    </g>
    <path id="Fill_54-2" data-name="Fill 54" d="M1.5,0a1.5,1.5,0,1,0,0,3,1.5,1.5,0,0,0,0-3" transform="translate(33 28)" fill="#a158ed"/>
    <path id="Fill_56-2" data-name="Fill 56" d="M1.5,0a1.5,1.5,0,0,0,0,3,1.5,1.5,0,1,0,0-3" transform="translate(31 37)" fill="#a158ed"/>
    <path id="Fill_58-2" data-name="Fill 58" d="M1.5,0a1.5,1.5,0,0,0,0,3,1.5,1.5,0,0,0,0-3" transform="translate(37 37)" fill="#a158ed"/>
  </g>
</svg>
